<?xml version="1.0" encoding="UTF-8"?>
<!DOCTYPE svg PUBLIC "-//W3C//DTD SVG 1.1//EN" "http://www.w3.org/Graphics/SVG/1.1/DTD/svg11.dtd">
<!-- Creator: CorelDRAW X6 -->
<svg xmlns="http://www.w3.org/2000/svg" xml:space="preserve" width="500" height="500" version="1.1" style="shape-rendering:geometricPrecision; text-rendering:geometricPrecision; image-rendering:optimizeQuality; fill-rule:evenodd; clip-rule:evenodd"
viewBox="0 0 42569 27778"
 xmlns:xlink="http://www.w3.org/1999/xlink">
 <defs>
  <style type="text/css">
   <![CDATA[
    .fil27 {fill:#152B3D;fill-rule:nonzero}
    .fil48 {fill:#1D2033;fill-rule:nonzero}
    .fil33 {fill:#213A70;fill-rule:nonzero}
    .fil43 {fill:#23263D;fill-rule:nonzero}
    .fil29 {fill:#254380;fill-rule:nonzero}
    .fil52 {fill:#2B4724;fill-rule:nonzero}
    .fil49 {fill:#2E334D;fill-rule:nonzero}
    .fil34 {fill:#303669;fill-rule:nonzero}
    .fil28 {fill:#323657;fill-rule:nonzero}
    .fil42 {fill:#33373B;fill-rule:nonzero}
    .fil30 {fill:#353A3D;fill-rule:nonzero}
    .fil35 {fill:#3A3F47;fill-rule:nonzero}
    .fil3 {fill:#48753A;fill-rule:nonzero}
    .fil19 {fill:#495DA1;fill-rule:nonzero}
    .fil10 {fill:#5284FC;fill-rule:nonzero}
    .fil50 {fill:#5A954B;fill-rule:nonzero}
    .fil46 {fill:#7D699C;fill-rule:nonzero}
    .fil38 {fill:#807571;fill-rule:nonzero}
    .fil37 {fill:#968A86;fill-rule:nonzero}
    .fil2 {fill:#97A43C;fill-rule:nonzero}
    .fil36 {fill:#A77860;fill-rule:nonzero}
    .fil47 {fill:#AB3434;fill-rule:nonzero}
    .fil40 {fill:#B0A29C;fill-rule:nonzero}
    .fil1 {fill:#BBD070;fill-rule:nonzero}
    .fil26 {fill:#C1DBD1;fill-rule:nonzero}
    .fil44 {fill:#C49441;fill-rule:nonzero}
    .fil39 {fill:#DBCAC2;fill-rule:nonzero}
    .fil20 {fill:#DECCC5;fill-rule:nonzero}
    .fil31 {fill:#E55353;fill-rule:nonzero}
    .fil25 {fill:#E8E8E8;fill-rule:nonzero}
    .fil51 {fill:#EBE2D8;fill-rule:nonzero}
    .fil0 {fill:#EDEDED;fill-rule:nonzero}
    .fil21 {fill:#EEA886;fill-rule:nonzero}
    .fil45 {fill:#EEA987;fill-rule:nonzero}
    .fil8 {fill:#EFF7FE;fill-rule:nonzero}
    .fil16 {fill:#F08533;fill-rule:nonzero}
    .fil17 {fill:#FAE6DE;fill-rule:nonzero}
    .fil7 {fill:#FF9F55;fill-rule:nonzero}
    .fil32 {fill:#FFBB55;fill-rule:nonzero}
    .fil41 {fill:#FFC055;fill-rule:nonzero}
    .fil4 {fill:white;fill-rule:nonzero}
    .fil9 {fill:url(#id0)}
    .fil12 {fill:url(#id1)}
    .fil13 {fill:url(#id2)}
    .fil15 {fill:url(#id3)}
    .fil14 {fill:url(#id4)}
    .fil22 {fill:url(#id5)}
    .fil23 {fill:url(#id6)}
    .fil24 {fill:url(#id7)}
    .fil5 {fill:url(#id8)}
    .fil6 {fill:url(#id9)}
    .fil11 {fill:url(#id10)}
    .fil18 {fill:url(#id11)}
   ]]>
  </style>
  <linearGradient id="id0" gradientUnits="userSpaceOnUse" x1="6453.17" y1="17290.8" x2="6453.17" y2="19541.8">
   <stop offset="0" style="stop-color:#40D5E6"/>
   <stop offset="1" style="stop-color:#5577FF"/>
  </linearGradient>
  <linearGradient id="id1" gradientUnits="userSpaceOnUse" xlink:href="#id0" x1="5972.03" y1="11770.3" x2="5972.03" y2="14530">
  </linearGradient>
  <linearGradient id="id2" gradientUnits="userSpaceOnUse" xlink:href="#id0" x1="7793.77" y1="9681.11" x2="7793.77" y2="11769.5">
  </linearGradient>
  <linearGradient id="id3" gradientUnits="userSpaceOnUse" x1="27930.4" y1="21046.2" x2="35325.3" y2="21046.2">
   <stop offset="0" style="stop-color:#FF9F55"/>
   <stop offset="1" style="stop-color:#FFD255"/>
  </linearGradient>
  <linearGradient id="id4" gradientUnits="userSpaceOnUse" xlink:href="#id3" x1="29773.8" y1="17617.2" x2="35998.4" y2="17617.2">
  </linearGradient>
  <linearGradient id="id5" gradientUnits="userSpaceOnUse" xlink:href="#id3" x1="17806.4" y1="8239.34" x2="21277" y2="8239.34">
  </linearGradient>
  <linearGradient id="id6" gradientUnits="userSpaceOnUse" xlink:href="#id3" x1="21390.1" y1="6745.22" x2="22981.2" y2="6745.22">
  </linearGradient>
  <linearGradient id="id7" gradientUnits="userSpaceOnUse" x1="13807.4" y1="15085.5" x2="26991.5" y2="15085.5">
   <stop offset="0" style="stop-color:white"/>
   <stop offset="0.141176" style="stop-color:white"/>
   <stop offset="1" style="stop-color:white"/>
  </linearGradient>
  <linearGradient id="id8" gradientUnits="userSpaceOnUse" x1="12731.3" y1="15341" x2="40462.6" y2="15341">
   <stop offset="0" style="stop-color:#6B9E34"/>
   <stop offset="0.141176" style="stop-color:#61933C"/>
   <stop offset="1" style="stop-color:#1F4A6E"/>
  </linearGradient>
  <linearGradient id="id9" gradientUnits="userSpaceOnUse" xlink:href="#id3" x1="6526.42" y1="21477.4" x2="6526.42" y2="19541.8">
  </linearGradient>
  <linearGradient id="id10" gradientUnits="userSpaceOnUse" xlink:href="#id3" x1="8430.85" y1="17290.4" x2="8430.85" y2="14530.7">
  </linearGradient>
  <linearGradient id="id11" gradientUnits="userSpaceOnUse" x1="37260.3" y1="19495.1" x2="31035.6" y2="19495.1">
   <stop offset="0" style="stop-color:#609FF0"/>
   <stop offset="1" style="stop-color:#5A3F9E"/>
  </linearGradient>
 </defs>
 <g id="Layer_x0020_1">
  <metadata id="CorelCorpID_0Corel-Layer"/>
  <polygon class="fil0" points="0,27778 42573,27778 42573,0 0,0 "/>
  <path class="fil1" d="M36272 13718c0,0 -3791,-1629 -5255,579 -1464,2208 587,2071 587,2071 0,0 114,1021 2051,-1395 913,-1139 2618,-1254 2618,-1254z"/>
  <path class="fil2" d="M36933 7424c0,0 -3365,-1044 -5581,3225 -2216,4269 -4208,4606 -4208,4606 0,0 7611,1366 9789,-7831z"/>
  <path class="fil3" d="M28543 15501c295,1419 3543,-1317 3863,-3771 320,-2454 -317,-4255 329,-5829 0,0 -5643,2612 -4192,9600z"/>
  <path class="fil4" d="M27665 8392c134,0 262,20 380,56 156,-377 542,-645 995,-645 503,0 925,330 1038,775 87,-33 181,-51 281,-51 419,0 758,323 758,720l-4519 0c0,-472 478,-856 1068,-856z"/>
  <path class="fil4" d="M34360 11238c102,0 200,15 290,43 119,-288 413,-492 758,-492 383,0 705,252 791,591 66,-25 138,-39 214,-39 319,0 578,246 578,549l-3445 0c0,-360 365,-652 814,-652z"/>
  <path class="fil5" d="M40359 19966l-27482 0c-95,-339 -146,-697 -146,-1066 0,-1049 409,-2002 1076,-2709l0 2566c0,429 348,777 777,777l11631 0c429,0 777,-348 777,-777l0 -7573c0,-176 -58,-338 -157,-468 2262,313 4231,1542 5522,3300 770,-408 1649,-640 2582,-640 3051,0 5525,2474 5525,5524 0,365 -35,721 -104,1066z"/>
  <path class="fil6" d="M10454 21477l-7321 0c-295,0 -534,-239 -534,-534l0 -867c0,-295 239,-534 534,-534l7321 0 0 1936z"/>
  <path class="fil7" d="M11711 19741l0 1537 128 0 0 199 -5306 0c-295,0 -534,-239 -534,-534l0 -867c0,-295 239,-534 534,-534l5306 0 0 199 -128 0z"/>
  <path class="fil8" d="M11711 21278l-4786 0c-295,0 -534,-239 -534,-534l0 -469c0,-295 239,-534 534,-534l4786 0 0 1537z"/>
  <path class="fil9" d="M10796 19542l-8015 0c-371,0 -671,-301 -671,-671l0 -908c0,-371 301,-671 671,-671l8015 0 0 2251z"/>
  <path class="fil10" d="M12218 17523l0 1788 111 0 0 232 -4359 0c-371,0 -671,-301 -671,-671l0 -909c0,-371 300,-671 671,-671l4359 0 0 232 -111 0z"/>
  <path class="fil8" d="M12218 19310l-3911 0c-371,0 -671,-301 -671,-671l0 -445c0,-371 301,-671 671,-671l3911 0 0 1788z"/>
  <path class="fil11" d="M5022 17290l6091 0c401,0 726,-325 726,-726l0 -1307c0,-401 -325,-726 -726,-726l-6091 0 0 2760z"/>
  <path class="fil7" d="M3931 14815l0 2192 -111 0 0 284 4343 0c401,0 726,-325 726,-726l0 -1307c0,-401 -325,-727 -726,-727l-4343 0 0 284 111 0z"/>
  <path class="fil8" d="M3931 17006l3840 0c399,0 722,-323 722,-722l0 -748c0,-399 -323,-722 -722,-722l-3840 0 0 2192z"/>
  <path class="fil12" d="M9583 14530l-6459 0c-422,0 -764,-342 -764,-764l0 -1232c0,-422 342,-764 764,-764l6459 0 0 2760z"/>
  <path class="fil10" d="M10739 12054l0 2192 118 0 0 284 -4607 0c-422,0 -764,-342 -764,-764l0 -1232c0,-422 342,-764 764,-764l4607 0 0 284 -118 0z"/>
  <path class="fil8" d="M10739 14246l-4091 0c-420,0 -760,-340 -760,-760l0 -671c0,-420 340,-760 760,-760l4091 0 0 2192z"/>
  <path class="fil13" d="M11405 11770l-6749 0c-262,0 -474,-212 -474,-474l0 -1140c0,-262 212,-474 474,-474l6749 0 0 2088z"/>
  <path class="fil10" d="M12561 9896l0 1659 118 0 0 215 -4896 0c-262,0 -474,-212 -474,-474l0 -1140c0,-262 212,-474 474,-474l4896 0 0 215 -118 0z"/>
  <path class="fil8" d="M12561 11555l-4418 0c-262,0 -474,-212 -474,-474l0 -711c0,-262 212,-474 474,-474l4418 0 0 1659z"/>
  <path class="fil14" d="M29774 18652l5843 0c211,0 382,-171 382,-382l0 -1307c0,-211 -171,-382 -382,-382l-5843 0 0 2071z"/>
  <path class="fil15" d="M27930 21755l7120 0c152,0 275,-123 275,-274l0 -868c0,-152 -123,-274 -275,-274l-7120 0 0 1417z"/>
  <path class="fil16" d="M27172 20492l0 1107 -188 0 0 155 3341 0c105,0 190,-85 190,-190l0 -1038c0,-105 -85,-190 -190,-190l-3341 0 0 155 188 0z"/>
  <path class="fil17" d="M27172 21600l2991 0c100,0 182,-82 182,-182l0 -743c0,-101 -82,-182 -182,-182l-2991 0 0 1107z"/>
  <path class="fil16" d="M28777 16795l0 1644 -102 0 0 213 4233 0c218,0 395,-177 395,-395l0 -1281c0,-218 -176,-395 -395,-395l-4233 0 0 213 102 0z"/>
  <path class="fil17" d="M28778 18439l3915 0c218,0 395,-177 395,-395l0 -855c0,-218 -177,-395 -395,-395l-3915 0 0 1644z"/>
  <path class="fil18" d="M31036 20338l5737 0c269,0 488,-218 488,-488l0 -709c0,-269 -219,-488 -488,-488l-5737 0 0 1685z"/>
  <path class="fil19" d="M30039 18826l0 1338 -102 0 0 173 4140 0c269,0 488,-218 488,-488l0 -709c0,-269 -219,-488 -488,-488l-4140 0 0 173 102 0z"/>
  <path class="fil17" d="M30039 20164l3835 0c270,0 488,-218 488,-488l0 -362c0,-269 -218,-488 -488,-488l-3835 0 0 1338z"/>
  <polygon class="fil20" points="30716,19295 32359,19295 32359,19253 30716,19253 "/>
  <polygon class="fil20" points="31375,19424 33129,19424 33129,19381 31375,19381 "/>
  <polygon class="fil20" points="27567,20821 29210,20821 29210,20779 27567,20779 "/>
  <polygon class="fil20" points="28226,20950 29980,20950 29980,20908 28226,20908 "/>
  <polygon class="fil20" points="29430,21067 30156,21067 30156,21025 29430,21025 "/>
  <polygon class="fil20" points="30698,17949 32452,17949 32452,17907 30698,17907 "/>
  <polygon class="fil20" points="30554,18067 31279,18067 31279,18024 30554,18024 "/>
  <path class="fil21" d="M30814 18186c0,-21 23,-54 58,-26 36,28 -8,130 -37,121 -29,-9 -21,-73 -21,-95z"/>
  <path class="fil22" d="M19542 9353c-615,0 -1113,-498 -1113,-1113 0,-615 498,-1113 1113,-1113 615,0 1113,498 1113,1113 0,615 -498,1113 -1113,1113zm1449 -1489c-35,-136 -89,-265 -159,-383l162 -244 -225 -225 -225 -225 -243 162c-118,-70 -247,-124 -383,-159l-58 -286 -635 0 -58 286c-136,35 -265,89 -384,159l-243 -162 -225 225 -225 225 162 244c-70,118 -124,247 -159,383l-287 58 0 635 287 58c35,136 89,265 159,384l-162 244 225 225 225 225 243 -162c118,70 247,124 384,159l58 286 635 0 58 -286c136,-35 265,-89 383,-159l243 162 225 -225 225 -225 -162 -244c70,-118 124,-247 159,-384l286 -58 0 -635 -286 -58z"/>
  <path class="fil23" d="M22186 7256c-282,0 -510,-228 -510,-510 0,-282 229,-510 510,-510 282,0 510,228 510,510 0,282 -228,510 -510,510zm664 -682c-16,-62 -41,-122 -73,-176l74 -112 -103 -103 -103 -103 -112 74c-54,-32 -113,-57 -176,-73l-26 -131 -291 0 -26 131c-63,16 -122,41 -176,73l-112 -74 -103 103 -103 103 74 112c-32,54 -57,113 -73,176l-131 26 0 291 131 26c16,62 41,122 73,176l-74 112 103 103 103 103 112 -74c54,32 113,57 176,73l26 131 291 0 26 -131c62,-16 122,-41 176,-73l112 74 103 -103 103 -103 -74 -112c32,-54 57,-113 73,-176l131 -26 0 -291 -131 -26z"/>
  <path class="fil4" d="M26215 10407l-11631 0c-429,0 -777,348 -777,777l0 5007c720,-763 1740,-1239 2872,-1239 563,0 1098,118 1582,331 1342,-2750 4165,-4645 7430,-4645 388,0 769,27 1143,78 -142,-187 -367,-308 -620,-308z"/>
  <path class="fil24" d="M26215 19534l-11631 0c-429,0 -777,-348 -777,-777l0 -2566c720,-763 1740,-1239 2872,-1239 563,0 1098,118 1582,331 1342,-2750 4165,-4645 7430,-4645 388,0 769,27 1143,78 98,130 157,292 157,468l0 7573c0,429 -348,777 -777,777z"/>
  <polygon class="fil25" points="20346,19640 20453,19640 20453,10306 20346,10306 "/>
  <polygon class="fil26" points="14697,11552 19542,11552 19542,11369 14697,11369 "/>
  <polygon class="fil26" points="14697,12223 19542,12223 19542,12040 14697,12040 "/>
  <polygon class="fil26" points="14697,12895 19542,12895 19542,12711 14697,12711 "/>
  <polygon class="fil26" points="14697,13566 19542,13566 19542,13383 14697,13383 "/>
  <polygon class="fil26" points="14697,14237 19542,14237 19542,14054 14697,14054 "/>
  <polygon class="fil26" points="14697,14908 19542,14908 19542,14725 14697,14725 "/>
  <polygon class="fil26" points="14697,15579 19542,15579 19542,15396 14697,15396 "/>
  <polygon class="fil26" points="14697,16251 19542,16251 19542,16067 14697,16067 "/>
  <polygon class="fil26" points="14697,16922 19542,16922 19542,16739 14697,16739 "/>
  <polygon class="fil26" points="14697,17593 19542,17593 19542,17410 14697,17410 "/>
  <polygon class="fil26" points="14697,18264 19542,18264 19542,18081 14697,18081 "/>
  <polygon class="fil26" points="21230,11552 26074,11552 26074,11369 21230,11369 "/>
  <polygon class="fil26" points="21230,12223 26074,12223 26074,12040 21230,12040 "/>
  <polygon class="fil26" points="21230,12895 26074,12895 26074,12711 21230,12711 "/>
  <polygon class="fil26" points="21230,13566 26074,13566 26074,13383 21230,13383 "/>
  <polygon class="fil26" points="21230,14237 26074,14237 26074,14054 21230,14054 "/>
  <polygon class="fil26" points="21230,14908 26074,14908 26074,14725 21230,14725 "/>
  <polygon class="fil26" points="21230,15579 26074,15579 26074,15396 21230,15396 "/>
  <polygon class="fil26" points="21230,16251 26074,16251 26074,16067 21230,16067 "/>
  <polygon class="fil26" points="21230,16922 26074,16922 26074,16739 21230,16739 "/>
  <polygon class="fil26" points="21230,17593 26074,17593 26074,17410 21230,17410 "/>
  <polygon class="fil26" points="21230,18264 26074,18264 26074,18081 21230,18081 "/>
  <path class="fil21" d="M23156 12964c0,0 -74,-129 43,-474 113,-334 504,-304 628,-90 124,214 82,347 -101,588 -183,242 -495,86 -571,-25z"/>
  <path class="fil21" d="M24064 18905c0,0 19,142 22,163 2,21 215,-12 215,-12l17 -169c0,0 -228,-2 -254,18z"/>
  <path class="fil27" d="M24083 19050c0,0 -67,86 -133,123 -65,37 -168,52 -206,91 -28,28 -101,148 169,145 271,-2 401,17 430,-29 29,-46 -42,-339 -42,-339 0,0 -66,19 -219,10z"/>
  <path class="fil21" d="M22591 18905c0,0 19,142 22,163 2,21 215,-12 215,-12l17 -169c0,0 -228,-2 -254,18z"/>
  <path class="fil27" d="M22610 19050c0,0 -67,86 -133,123 -65,37 -305,68 -344,106 -28,28 -74,140 307,129 271,-7 401,17 430,-29 29,-46 -42,-339 -42,-339 0,0 -84,15 -219,10z"/>
  <path class="fil28" d="M23992 15374c0,0 109,339 95,631 -14,292 56,612 85,917 32,340 164,1146 169,1327 5,182 -20,763 -20,763l-264 6c0,0 -222,-1408 -279,-1552 -58,-144 -342,-1168 -352,-1283 -10,-115 567,-811 567,-811z"/>
  <path class="fil28" d="M22897 15338c0,0 -160,896 -180,1075 -19,179 -32,865 -42,977 -10,112 -64,1462 -115,1628l295 0c0,0 302,-982 302,-1446 0,-465 200,-1010 330,-1316 129,-307 425,-314 505,-882 0,0 -988,-216 -1095,-35z"/>
  <path class="fil21" d="M23263 13055c0,0 33,97 0,166 -33,69 425,28 425,28 0,0 -21,-143 39,-260 60,-117 -464,67 -464,67z"/>
  <path class="fil28" d="M24013 15448c0,0 -165,169 -1131,-26l15 -83 1099 41 18 68z"/>
  <path class="fil21" d="M23193 13243c0,0 -169,17 -217,26 -48,9 -373,-58 -440,-65 -67,-7 -351,-202 -360,-225 -9,-23 -173,-438 -182,-528 -9,-90 -160,-43 -147,18 24,116 55,396 72,478 18,88 68,287 95,311 27,25 284,219 534,302 251,83 440,205 440,205l1236 0c0,0 481,-687 491,-791 10,-104 -336,-792 -405,-878 -69,-86 -169,28 -169,28 0,0 207,607 234,693 27,86 -241,465 -314,466 -74,1 -263,-23 -347,-26 -84,-3 -173,-40 -173,-40l-349 24z"/>
  <path class="fil29" d="M22661 13702c0,0 151,101 165,273 14,173 69,445 97,538 28,93 -24,770 -31,818 -7,48 956,163 1104,48 0,0 41,-631 59,-811 17,-179 100,-614 128,-673 28,-59 362,-528 376,-590 0,0 -173,-276 -298,-280 0,0 -197,231 -262,242 -64,10 -459,-62 -459,-63 0,0 -43,59 -272,-10 0,0 -273,31 -317,36 -54,7 -427,-47 -427,-47 0,0 -150,253 -123,380l259 137z"/>
  <path class="fil21" d="M22002 12506c0,0 -34,-160 7,-206 23,-26 79,-95 84,-105 5,-10 65,-45 65,-61 0,-17 -58,-37 -109,10 -51,47 -83,57 -103,52 -20,-5 -49,-174 -52,-216 -3,-42 -19,-153 -45,-145 -26,8 -25,56 -25,56 0,0 -31,-84 -51,-67 -20,17 -18,57 -18,57 0,0 -38,-47 -48,-13 -10,34 0,65 0,65 0,0 -39,-22 -42,32 -3,53 11,210 39,266 28,56 133,202 145,259 12,57 153,16 153,16z"/>
  <path class="fil21" d="M24175 12225c0,0 -115,-193 -154,-211 -39,-17 -94,-27 -143,-62 -48,-35 -112,-63 -109,-75 3,-11 60,-7 121,20 61,26 88,14 93,0 6,-14 -33,-111 -51,-134 -18,-23 -150,-155 -128,-174 22,-20 107,53 121,68 0,0 -68,-143 -41,-150 26,-7 76,44 76,44 0,0 -6,-122 125,76 0,0 -28,-66 13,-44 40,22 79,145 92,207 13,62 70,260 119,308 49,48 -135,127 -135,127z"/>
  <path class="fil30" d="M23727 12989c0,0 -61,5 -189,-39 -129,-44 -138,-270 -166,-243 -57,54 -110,17 -132,-15 0,0 63,-83 34,-123 -29,-40 -77,-69 -77,-69 0,0 91,-437 503,-238 483,233 28,727 28,727z"/>
  <path class="fil29" d="M23263 13221l15 -63c0,0 263,-5 407,16l15 75c0,0 -184,83 -436,-28z"/>
  <path class="fil21" d="M23328 12651c24,-40 112,-67 123,46 8,87 -158,182 -160,101 -2,-81 21,-121 37,-147z"/>
  <path class="fil31" d="M21996 12470c0,0 -95,2 -141,44 0,0 -3,26 8,47 0,0 82,-38 145,-46 0,0 -1,-35 -12,-46z"/>
  <path class="fil30" d="M21884 12494c-9,21 1,45 22,54 21,9 45,-1 53,-22 9,-21 -1,-45 -22,-53 -21,-9 -45,1 -54,22z"/>
  <polygon class="fil32" points="24585,19449 22006,19449 22818,21945 22742,21970 21895,19369 24643,19369 25482,21945 25406,21970 "/>
  <polygon class="fil32" points="23707,21945 24520,19449 21941,19449 21120,21970 21044,21945 21882,19369 24630,19369 23783,21970 "/>
  <polygon class="fil32" points="21668,20235 24825,20235 24825,20155 21668,20155 "/>
  <polygon class="fil32" points="21373,21103 25150,21103 25150,21023 21373,21023 "/>
  <path class="fil33" d="M30294 18573c0,0 17,140 40,202 23,62 146,205 94,342 -57,149 -304,5 -405,-40 -101,-45 -78,-128 -89,-228 -11,-101 -60,-103 -42,-174 18,-71 129,-207 129,-207l273 106z"/>
  <path class="fil21" d="M30069 18394c0,0 -63,89 -62,91 2,2 271,166 290,113 15,-42 21,-103 21,-103l-249 -101z"/>
  <path class="fil33" d="M29156 18672c0,0 -82,72 -156,183 -74,111 -270,117 -278,268 -8,151 266,156 411,107 144,-49 166,-197 253,-234 87,-37 132,-67 126,-139 -7,-72 -55,-189 -55,-189 0,0 -55,17 -86,21 -32,3 -139,5 -215,-16z"/>
  <path class="fil17" d="M30144 14578c0,0 -55,329 -100,546l0 0c-18,88 -34,158 -44,180 -13,28 -117,139 -244,270 -223,229 -517,518 -517,518l-115 -218c0,0 262,-307 439,-511 82,-95 146,-167 158,-178 37,-33 80,-360 140,-629 60,-269 182,-418 182,-418l101 441z"/>
  <path class="fil21" d="M29757 15573c-223,229 -517,518 -517,518l-115 -218c0,0 262,-307 439,-511 54,27 154,90 194,211z"/>
  <path class="fil21" d="M29169 18572l-13 101c0,0 143,51 301,-4l3 -90 -291 -7z"/>
  <path class="fil17" d="M31199 16047c8,29 -1515,0 -1515,0 0,0 421,-307 449,-389 27,-82 -107,-574 -125,-734 -14,-128 -49,-701 35,-788 88,-91 406,-187 406,-187l463 17c0,0 76,16 131,41 55,25 367,137 418,293 51,156 -311,658 -311,658 0,0 -1,22 -2,59l0 0c-1,49 -3,124 -6,205 -2,105 -5,221 -5,306 0,199 54,489 62,518z"/>
  <path class="fil34" d="M31199 16047c0,0 207,304 210,512 3,208 -368,904 -424,1003 -169,299 -631,945 -631,945 0,0 -80,-2 -329,-99 0,0 308,-853 347,-941 165,-375 257,-642 202,-706 -56,-64 -207,-129 -251,-167 -44,-38 -809,144 -889,165 -208,54 -113,415 -67,577 77,271 144,1249 144,1249 0,0 -148,63 -395,10 0,0 -486,-1766 -502,-1941 -16,-176 -23,-465 1174,-685l1410 79z"/>
  <path class="fil21" d="M30576 12944c0,0 -402,-91 -310,415 92,506 188,546 431,441 242,-105 221,-429 233,-588 12,-159 -226,-263 -354,-268z"/>
  <path class="fil21" d="M30470 14080c0,0 178,189 459,17 0,0 -63,-409 -30,-608 33,-199 -367,309 -367,309 6,3 9,22 10,49 1,23 -1,52 -4,81 -8,66 -29,136 -68,153z"/>
  <path class="fil35" d="M30910 13472c0,0 -10,-159 -69,-164 -58,-5 -67,59 -67,59l-59 11c0,0 19,-140 -40,-164 -58,-24 -376,77 -423,36 -47,-41 -25,-324 60,-363 84,-39 317,-126 488,-10 0,0 133,-15 153,92 20,107 -7,423 -43,503z"/>
  <path class="fil36" d="M30538 13927c290,-89 312,-264 312,-267 -96,164 -308,186 -308,186 1,23 -1,52 -4,81z"/>
  <path class="fil21" d="M31048 14010c0,0 -212,423 -556,396 -343,-27 -59,-453 -43,-457 17,-4 352,-88 599,61z"/>
  <path class="fil17" d="M29510 16026c0,0 1052,130 1689,21l-1218 -152c0,0 -7,31 -471,131z"/>
  <path class="fil21" d="M30297 15847l-78 40c0,0 18,124 61,162l88 -22c0,0 -18,-137 -71,-179z"/>
  <path class="fil17" d="M31514 15592c-15,18 -222,101 -456,191l0 0c-319,123 -679,239 -679,239l-82 -176c0,0 377,-205 632,-349 120,-68 213,-122 227,-135 41,-39 51,-102 21,-211 -30,-109 -99,-611 -107,-669 -8,-59 19,-215 166,-223 146,-8 221,34 221,34 0,0 37,15 64,370 27,355 31,884 -6,927z"/>
  <path class="fil37" d="M31147 15018l0 0c-1,49 -3,124 -6,205 -143,-350 -60,-629 -59,-634 -15,95 63,424 64,429z"/>
  <path class="fil37" d="M30045 15124l0 0c-18,88 -34,158 -44,180 -49,-236 -5,-538 -5,-538 7,144 49,358 49,358z"/>
  <path class="fil21" d="M31058 15784l0 0c-319,123 -691,243 -691,243l-71 -179c0,0 377,-205 632,-349 0,0 93,45 129,285z"/>
  <polygon class="fil38" points="30274,16037 28779,16015 29534,16399 "/>
  <polygon class="fil39" points="29534,16399 30274,16112 30274,16037 29475,16325 "/>
  <path class="fil21" d="M30235 15890c0,0 -93,-15 -158,-30 -50,-12 -174,4 -206,37 -32,32 -132,255 -152,269 -19,14 10,45 43,29 0,0 31,98 106,61 76,-37 127,-117 167,-131 40,-14 271,-85 271,-85 0,0 -12,-175 -72,-151z"/>
  <path class="fil21" d="M29894 15882c0,0 -60,29 -76,42 -16,13 -79,60 -94,72 -15,11 23,43 137,-6 113,-49 33,-107 33,-107z"/>
  <polygon class="fil39" points="29534,16399 29089,15184 27655,15208 28079,16327 "/>
  <path class="fil40" d="M28630 15721c44,88 30,183 -30,213 -60,30 -144,-17 -188,-104 -44,-88 -31,-183 29,-213 60,-30 144,17 188,104z"/>
  <path class="fil21" d="M30776 13299c5,-45 93,-61 100,6 7,67 -40,184 -74,173 -33,-12 -34,-117 -27,-179z"/>
  <path class="fil21" d="M19512 18178c0,0 -14,78 -58,90 -37,10 -79,50 -91,62 -17,16 -88,47 -67,69 20,22 119,-45 143,-55 24,-10 -10,99 -1,124 10,25 193,70 207,-7 14,-77 -21,-170 -16,-183 5,-13 13,-56 13,-56l-129 -44z"/>
  <path class="fil21" d="M19436 18448c0,0 -28,240 -17,258 11,18 25,18 28,-4 4,-22 34,-231 34,-231 0,0 14,290 20,306 4,10 29,13 32,1 3,-12 6,-300 6,-300 0,0 13,270 23,283 8,11 32,8 32,-13 0,-20 2,-272 2,-272 0,0 22,196 36,202 8,3 30,7 23,-43 -7,-50 -12,-171 -12,-171l-207 -15z"/>
  <path class="fil21" d="M16936 15235c0,0 -39,-74 -53,-132 -13,-59 -87,-137 -117,-156 -30,-18 -246,-173 -271,-173 -25,0 -11,48 11,62 22,14 198,151 198,151 0,0 -219,-151 -242,-147 -23,4 -39,33 -15,63 0,0 -50,33 2,73l103 80c0,0 -61,-32 -38,17 12,26 139,102 159,125 20,23 181,101 181,101l81 -64z"/>
  <path class="fil21" d="M18218 21957l-54 0c0,0 18,-205 -32,-207 -50,-2 -175,167 -249,193 -74,26 -456,48 -458,-22 -2,-70 147,-98 193,-118 46,-20 271,-239 311,-265 40,-26 106,-159 106,-159l205 0c0,0 23,111 35,201 5,33 8,63 9,84 2,76 -66,293 -66,293z"/>
  <path class="fil21" d="M19160 21917l-45 0 0 -191c-38,3 -164,123 -203,157 -39,35 -93,33 -258,43 -165,11 -180,-88 -154,-122 26,-34 110,-48 154,-69 44,-21 217,-216 263,-262 46,-46 74,-178 74,-178l193 17c0,0 -1,121 21,222l0 0 0 1c2,9 4,17 6,25 29,106 -51,356 -51,356z"/>
  <path class="fil21" d="M18709 15546c0,0 94,198 44,361 0,0 289,-39 298,-73 9,-34 -36,-338 -3,-432 33,-93 -339,144 -339,144z"/>
  <path class="fil41" d="M18702 15841c0,0 -168,72 -244,94 -76,22 -233,109 -200,390 34,281 100,522 126,642 26,120 38,429 20,581 0,0 419,72 896,-65 0,0 -104,-249 -107,-316 -3,-66 242,-631 249,-718 7,-87 37,-470 -99,-544 -136,-74 -241,-56 -299,-89 -58,-34 -265,-8 -343,25z"/>
  <path class="fil41" d="M18703 16278c0,0 64,-337 -263,-337 -288,0 -559,-54 -605,-79 -46,-25 -221,-112 -314,-207 -92,-95 -593,-476 -593,-476l-138 140c0,0 528,573 613,629 85,56 800,455 890,468 91,12 345,82 409,-138z"/>
  <path class="fil41" d="M19731 17321c10,119 -55,939 -55,939l-233 27c0,0 17,-810 30,-997 4,-55 -9,-140 -29,-231l0 0c-13,-58 -28,-119 -44,-177 -44,-161 -91,-300 -91,-300 0,0 -261,-678 66,-650 0,0 122,125 173,331 51,205 110,513 113,636 2,123 63,336 71,423z"/>
  <path class="fil28" d="M18460 17541c0,0 -75,178 -82,222 -7,45 -242,631 -258,802 -17,173 -66,636 -84,702 -18,66 40,362 49,428 9,66 4,1148 -75,1683 0,0 185,79 327,0 0,0 234,-835 221,-1316 -13,-481 -74,-685 0,-879 75,-194 512,-777 556,-839 44,-62 321,-403 59,-774 -262,-370 -713,-30 -713,-30z"/>
  <path class="fil28" d="M19365 19122c-23,155 1,358 50,923 49,565 -85,1250 -85,1250 -168,57 -361,0 -361,0 4,-40 0,-1378 0,-1497 0,-119 -34,-255 -43,-392 -6,-93 -49,-265 -98,-441 -15,-53 -30,-106 -44,-157l0 0c-8,-29 -16,-57 -24,-84 -69,-238 -161,-1159 -161,-1159 0,0 513,-413 762,-24 250,389 121,671 113,720 -9,49 -84,707 -107,861z"/>
  <path class="fil41" d="M18371 16847c0,0 46,732 -91,1143 0,0 541,90 1232,-142 0,0 -190,-492 -183,-569 7,-77 207,-972 111,-1173 -96,-200 -1034,84 -1068,741z"/>
  <path class="fil21" d="M18813 14731c-124,-5 -440,43 -381,519 59,476 231,435 401,372 170,-63 351,-448 343,-547 -7,-99 -11,-329 -364,-343z"/>
  <path class="fil42" d="M18434 15030c0,0 151,166 293,198 0,0 121,184 311,219 0,0 371,-410 15,-672 -356,-262 -632,109 -619,254z"/>
  <path class="fil21" d="M18697 15164c3,-27 57,-84 106,-28 49,56 -22,201 -53,203 -31,2 -63,-75 -53,-176z"/>
  <path class="fil43" d="M19152 18292c-4,9 -259,576 -325,674 -15,-53 -30,-106 -44,-157l0 0c0,0 361,-505 370,-517z"/>
  <path class="fil44" d="M19455 16478c0,0 18,360 -12,581 -13,-58 -28,-119 -44,-177 1,-8 51,-347 56,-404z"/>
  <path class="fil41" d="M18328 16198c0,0 -111,395 -134,478 -30,108 123,267 248,204 125,-62 -114,-682 -114,-682z"/>
  <path class="fil28" d="M19160 21917l-45 0 0 -191c-38,3 -164,123 -203,157 -39,35 -93,33 -258,43 -165,11 -180,-88 -154,-122 26,-34 110,-48 154,-69 176,9 392,-239 495,-238 55,0 54,31 56,36l0 0 0 1c2,9 4,17 6,25 29,106 -51,356 -51,356z"/>
  <path class="fil28" d="M18218 21957l-54 0c0,0 18,-205 -32,-207 -50,-2 -175,167 -249,193 -74,26 -456,48 -458,-22 -2,-70 147,-98 193,-118 157,0 413,-174 493,-209 79,-35 165,-14 165,-14 5,33 8,63 9,84 2,76 -66,293 -66,293z"/>
  <path class="fil42" d="M18909 14700c0,0 431,-10 366,730 -50,569 159,850 130,933 -29,83 -130,221 -357,96 -226,-125 -77,-777 -199,-1030 -121,-254 -388,-371 -388,-371 0,0 47,-432 447,-358z"/>
  <path class="fil45" d="M12492 20288c-45,97 -686,976 -725,1075 -39,99 -304,518 -304,518l-163 -114c0,0 423,-1194 555,-1359l0 0c3,-4 6,-7 9,-10 17,-16 34,-33 52,-51l0 0c112,-112 151,-214 67,-330 -97,-134 -419,-899 -434,-975 -15,-76 -583,-1103 630,-682 0,0 205,641 235,1114 30,473 123,717 78,814z"/>
  <path class="fil36" d="M11915 20347c0,0 0,314 -13,413 -13,98 -13,237 -13,237 0,0 -132,-394 -34,-589l0 0c3,-4 6,-7 9,-10 17,-16 34,-33 52,-51z"/>
  <path class="fil21" d="M13166 16503c0,0 38,-93 52,-114 14,-21 -30,-67 -57,-12 -27,55 -44,90 -44,90l49 35z"/>
  <path class="fil46" d="M13128 16590l129 -398c8,-26 -8,-54 -35,-59l-193 -38c-24,-5 -48,10 -54,34l-98 409c-6,26 11,52 37,56l163 27c23,4 45,-10 52,-31z"/>
  <path class="fil21" d="M13181 16563c0,0 16,-34 -40,-92 -75,-77 -180,-165 -205,-162 -36,5 -29,34 22,74 51,40 67,53 67,53 0,0 -109,-52 -139,-48 -30,4 -43,35 -26,47 17,12 59,31 59,31 0,0 -48,-16 -60,2 -9,13 -18,33 24,58 0,0 -43,23 -5,61 38,39 43,62 37,112 -6,50 26,130 26,130l147 -16c0,0 27,-132 46,-162 19,-31 48,-87 48,-87z"/>
  <path class="fil28" d="M13102 16829c0,37 -574,776 -620,777 -71,1 -159,-105 -226,-206 0,0 3,-17 25,-199 21,-182 -57,-302 -57,-302 0,0 -59,255 -37,389 -22,-38 -35,-63 -35,-63 0,0 -554,-595 -200,-754 0,0 184,62 265,205 81,143 115,297 143,384 0,0 84,181 107,164 23,-16 136,-173 229,-247 93,-74 193,-248 193,-248 0,0 211,58 211,100z"/>
  <path class="fil47" d="M12282 17202c-21,182 -25,199 -25,199 -27,-41 -51,-80 -69,-112l0 0c-22,-134 37,-389 37,-389 0,0 78,120 57,302z"/>
  <path class="fil45" d="M11774 22421c0,50 3,78 -139,80 -143,2 -280,-181 -376,-309 -96,-129 -221,-190 -142,-277 10,-11 20,-22 30,-32 74,-77 163,-153 174,-168 13,-18 141,168 141,168 0,0 -11,93 12,148 23,54 59,252 127,285l0 0c68,33 172,95 172,106z"/>
  <path class="fil45" d="M12631 22673c-102,-2 -391,-17 -552,0 -161,17 -223,-7 -212,-123 1,-6 1,-13 2,-19 14,-113 60,-254 63,-302 3,-50 207,-22 207,-22 0,0 107,158 165,190 59,32 236,98 304,128 5,2 10,4 16,6l0 0c72,24 193,28 211,66 19,42 -102,78 -204,76z"/>
  <path class="fil45" d="M11211 18316c0,0 -289,449 -218,857 71,408 333,853 378,1025 45,172 35,352 35,488 1,217 128,625 226,826 95,196 309,755 309,755l204 -29c0,0 -295,-1379 -298,-1480 -3,-100 23,-398 -6,-528 -29,-129 -155,-1007 -198,-1169 -42,-162 103,-1017 -432,-745z"/>
  <path class="fil28" d="M12168 18219c0,0 54,200 74,258 20,58 189,793 262,1354 0,0 -260,417 -1204,402 0,0 -351,-864 -342,-1173 10,-358 190,-837 306,-926 103,-79 903,85 903,85z"/>
  <path class="fil48" d="M12282 17202c-21,182 -25,199 -25,199 -27,-41 -51,-80 -69,-112l0 0c-22,-134 37,-389 37,-389 0,0 78,120 57,302z"/>
  <path class="fil28" d="M11137 17249c63,123 99,324 136,371 69,90 49,216 48,256 -1,117 -151,405 -151,405 73,39 1014,72 997,-63 -17,-135 7,-610 17,-710 10,-100 -3,-199 6,-242 9,-44 56,-122 60,-242 4,-120 -85,-224 -120,-309 -42,-103 -121,-244 -195,-248 -66,-3 -160,-44 -160,-44l-263 -20c0,0 -73,25 -185,34 -112,8 -173,20 -286,82 -113,62 -59,485 -59,485 0,0 92,112 155,244z"/>
  <path class="fil21" d="M11790 16143c0,0 -5,31 -9,77 -2,23 -4,50 -5,79 -2,79 3,170 31,227 0,0 -144,93 -307,-120 0,0 7,-271 -87,-412 -94,-141 376,149 376,149z"/>
  <path class="fil21" d="M11437 16423c0,0 74,382 305,332 231,-50 46,-326 46,-326 0,0 -99,-91 -351,-6z"/>
  <path class="fil21" d="M11066 17479c0,0 98,52 158,70 47,14 146,81 160,119 14,38 12,249 23,267 11,19 -26,29 -48,2 0,0 -64,59 -114,-2 -50,-61 -62,-143 -90,-172 -28,-28 -196,-185 -196,-185 0,0 66,-145 107,-100z"/>
  <path class="fil28" d="M11962 15821c0,0 -45,446 37,558 0,0 -218,-47 -269,-123 -51,-75 232,-435 232,-435z"/>
  <path class="fil21" d="M11666 15319c0,0 267,-7 316,309 49,316 -64,593 -109,638 -44,44 -311,11 -374,-153 -63,-164 -155,-284 -141,-425 14,-141 -20,-374 308,-369z"/>
  <path class="fil28" d="M11994 15747c0,0 71,-394 -283,-464 -354,-70 -478,172 -512,316 -34,144 6,550 6,550 0,0 236,207 377,261 0,0 -118,-432 -74,-742 0,0 288,45 479,-2 0,0 6,65 6,82z"/>
  <path class="fil36" d="M11782 16283c0,0 -93,-1 -219,-82 0,0 89,111 212,152 0,0 7,-55 6,-70z"/>
  <path class="fil28" d="M12631 22673c-102,-2 -391,-17 -552,0 -161,17 -223,-7 -212,-123 1,-6 1,-13 2,-19 39,-27 317,-11 482,11 165,21 272,-11 272,-11l0 0c72,24 193,28 211,66 19,42 -102,78 -204,76z"/>
  <path class="fil28" d="M11778 22419c0,50 -1,80 -144,82 -143,2 -280,-181 -376,-309 -96,-129 -221,-190 -142,-277 10,-11 20,-22 30,-32 4,4 189,170 247,287 98,193 202,145 207,146l0 0c68,33 177,93 177,104z"/>
  <path class="fil28" d="M11406 16581c-23,-59 -211,-149 -372,-57 -160,93 -283,194 -377,235 -94,41 -424,290 -458,349 -31,52 -52,86 82,172 138,88 678,336 678,336l121 -145c0,0 -145,-92 -252,-161 -107,-69 -66,-48 -188,-115 0,0 202,-123 279,-149 77,-27 591,-197 486,-464z"/>
  <path class="fil4" d="M4434 10221c0,0 -108,-199 -170,-271 -62,-72 -267,-125 -239,-217 28,-92 302,-52 378,38 76,90 306,121 314,159 8,38 -80,245 -130,279 -49,34 -154,12 -154,12z"/>
  <path class="fil4" d="M3973 10389c0,0 -177,-140 -262,-181 -85,-41 -294,-9 -305,-104 -11,-95 257,-168 362,-115 105,52 329,-10 352,21 22,32 24,256 -8,307 -32,51 -138,73 -138,73z"/>
  <path class="fil21" d="M4365 10754c0,0 77,-527 74,-619 -1,-26 159,-16 151,34 -16,109 57,533 45,611 -13,78 -276,23 -269,-26z"/>
  <path class="fil21" d="M4124 10905c0,0 -145,-512 -178,-597 -15,-38 132,-97 152,-29 31,106 264,467 284,543 19,76 -244,131 -258,83z"/>
  <path class="fil28" d="M4224 11261c0,0 -155,-523 -179,-579l245 -151c0,0 113,334 129,418 16,84 -195,312 -195,312z"/>
  <path class="fil49" d="M8556 9879c0,0 -236,60 -349,238 -112,179 -210,385 -421,478 -211,93 -213,334 -196,371 16,37 666,767 807,795 142,28 407,9 378,-179 -28,-187 -306,-591 -150,-794 156,-203 195,-391 195,-391l-265 -518z"/>
  <path class="fil21" d="M8514 10751c0,0 -7,-2 -18,-3 -13,-1 -33,-1 -55,7 -6,2 -13,6 -22,11 -56,33 -189,123 -207,125 -21,2 -3,-308 -3,-308 0,0 71,-125 80,-208 9,-82 226,376 226,376z"/>
  <path class="fil28" d="M6852 11075c0,0 -260,-182 -564,-125 -304,57 -337,199 -442,205 -104,6 -454,-23 -740,60 -287,84 -528,93 -561,69 -33,-24 179,-501 179,-567l-355 -93c0,0 -101,424 -141,519 -43,102 -124,294 -8,462 116,167 442,92 639,125 197,34 1079,12 1233,4 167,-9 671,-33 671,-33l90 -627z"/>
  <path class="fil21" d="M8985 10132c0,0 17,256 -40,333 -23,31 -38,48 -49,57 -15,13 -26,29 -32,47 -18,49 -28,119 -42,134 -15,16 -60,-25 -76,-25 -16,0 -172,135 -210,107 -37,-28 -265,-259 -246,-417 19,-159 89,-395 346,-394 257,1 330,95 350,159z"/>
  <path class="fil50" d="M8209 11356c-5,11 -99,161 -203,249 -43,36 -87,62 -128,62 -12,0 -24,0 -36,0 -119,3 -210,21 -370,29 -166,8 -570,-15 -582,-15 -12,0 -128,21 -128,21 -42,-51 69,-624 90,-627 21,-3 155,48 284,27 128,-21 179,-33 370,-257 191,-224 382,-281 463,-263 81,18 241,0 241,0 0,0 7,758 0,773z"/>
  <polygon class="fil51" points="9120,11964 10111,11964 10111,11857 9120,11857 "/>
  <polygon class="fil51" points="10351,10918 10009,11930 10111,11964 10453,10952 "/>
  <path class="fil49" d="M8877 10315c0,0 48,124 73,141 0,0 92,-98 33,-338 -59,-241 -283,-264 -427,-239 -180,30 -361,638 -351,698 9,59 211,-314 387,-284 176,30 178,40 285,23z"/>
  <path class="fil36" d="M8496 10748c-13,-1 -32,0 -55,8 -6,2 -14,4 -22,9 -41,-64 -79,-217 -81,-222 28,84 158,205 158,205z"/>
  <path class="fil52" d="M8006 11604c-43,36 -87,62 -128,62 -12,0 -24,0 -36,0l49 -475 115 413z"/>
  <path class="fil21" d="M8221 11145c0,0 15,374 22,437 7,63 -1,99 67,105 67,6 536,60 679,84 143,24 197,-32 223,-40 26,-8 188,-13 237,3 51,17 116,57 158,63 42,6 99,29 96,49 -4,20 -96,17 -124,17 -28,0 -473,-12 -495,-1 -28,14 -387,32 -453,32 -66,0 -587,41 -633,-23 -46,-64 -104,-720 -98,-750 6,-30 290,-45 322,25z"/>
  <path class="fil50" d="M8244 11153c0,0 18,-499 -144,-492 -205,8 -236,259 -208,531 0,0 306,3 352,-39z"/>
 </g>
</svg>
