<?xml version="1.0" encoding="UTF-8"?>
<!DOCTYPE svg PUBLIC "-//W3C//DTD SVG 1.1//EN" "http://www.w3.org/Graphics/SVG/1.1/DTD/svg11.dtd">
<!-- Creator: CorelDRAW X6 -->
<svg xmlns="http://www.w3.org/2000/svg" xml:space="preserve" width="5.875in" height="5.72222in" version="1.1" style="shape-rendering:geometricPrecision; text-rendering:geometricPrecision; image-rendering:optimizeQuality; fill-rule:evenodd; clip-rule:evenodd"
viewBox="0 0 5875 5722"
 xmlns:xlink="http://www.w3.org/1999/xlink">
 <defs>
  <style type="text/css">
   <![CDATA[
    .fil11 {fill:#28343A;fill-rule:nonzero}
    .fil4 {fill:#2C3C43;fill-rule:nonzero}
    .fil13 {fill:#42616A;fill-rule:nonzero}
    .fil10 {fill:#986E63;fill-rule:nonzero}
    .fil8 {fill:#BC6D5C;fill-rule:nonzero}
    .fil6 {fill:#fff;fill-rule:nonzero}
    .fil12 {fill:#C0C1C2;fill-rule:nonzero}
    .fil7 {fill:#C28879;fill-rule:nonzero}
    .fil14 {fill:#C2C4C4;fill-rule:nonzero}
    .fil2 {fill:#D9DAD9;fill-rule:nonzero}
    .fil9 {fill:#2D9CDB;fill-rule:nonzero}
    .fil3 {fill:#E5E6E5;fill-rule:nonzero}
    .fil18 {fill:#ED9CA1;fill-rule:nonzero}
    .fil1 {fill:#EFEFEF;fill-rule:nonzero}
    .fil5 {fill:#2D9CDB;fill-rule:nonzero}
    .fil16 {fill:#F69775;fill-rule:nonzero}
    .fil17 {fill:#F6A0A9;fill-rule:nonzero}
    .fil0 {fill:#F7F7F6;fill-rule:nonzero}
    .fil15 {fill:#F9B39B;fill-rule:nonzero}
   ]]>
  </style>
 </defs>
 <g id="Layer_x0020_1">
  <metadata id="CorelCorpID_0Corel-Layer"/>
  <path class="fil0" d="M245 1012l-203 979c90,92 186,178 340,211l743 131 174 -1151 -1055 -170z"/>
  <polygon class="fil1" points="203,952 0,1931 340,2142 1084,2272 1303,1167 "/>
  <path class="fil2" d="M139 1879l-139 52c0,0 50,82 123,126 73,44 143,72 217,85 0,0 -162,-81 -202,-263z"/>
  <polygon class="fil3" points="90,1162 598,1004 565,897 49,1048 "/>
  <polygon class="fil3" points="1391,1432 1062,1014 973,1083 1299,1511 "/>
  <path class="fil2" d="M1112 1493c0,2 -188,-33 -419,-78 -231,-45 -418,-83 -418,-85 0,-2 188,33 419,78 231,45 418,83 417,85z"/>
  <path class="fil2" d="M1079 1643c0,2 -188,-33 -419,-78 -231,-45 -418,-83 -418,-85 0,-2 188,33 419,78 231,45 418,83 417,85z"/>
  <path class="fil2" d="M1057 1777c0,2 -188,-33 -419,-78 -231,-45 -418,-83 -418,-85 0,-2 188,33 419,78 231,45 418,83 417,85z"/>
  <path class="fil2" d="M1031 1906c0,2 -188,-33 -419,-78 -231,-45 -418,-83 -418,-85 0,-2 188,33 419,78 231,45 418,83 417,85z"/>
  <path class="fil0" d="M5000 562l-263 640c-87,18 -176,30 -277,-11l-477 -213 345 -728 671 311z"/>
  <polygon class="fil1" points="5048,544 4785,1184 4508,1173 4031,960 4333,242 "/>
  <path class="fil2" d="M4726 1100l59 84c0,0 -60,27 -119,25 -59,-3 -110,-14 -158,-35 0,0 124,16 218,-73z"/>
  <polygon class="fil3" points="5031,708 4801,421 4861,372 5099,658 "/>
  <polygon class="fil3" points="4181,359 4531,247 4555,321 4203,440 "/>
  <path class="fil2" d="M4317 502c1,-2 123,48 273,112 150,63 271,116 270,118 -1,2 -123,-48 -273,-112 -150,-63 -271,-116 -270,-118z"/>
  <path class="fil2" d="M4278 601c1,-2 123,48 273,112 150,63 271,116 270,118 -1,2 -123,-48 -273,-112 -150,-63 -271,-116 -270,-118z"/>
  <path class="fil2" d="M4238 687c1,-2 123,48 273,112 150,63 271,116 270,118 -1,2 -123,-48 -273,-112 -150,-63 -271,-116 -270,-118z"/>
  <path class="fil2" d="M4203 771c1,-2 123,48 273,112 150,63 271,116 270,118 -1,2 -123,-48 -273,-112 -150,-63 -271,-116 -270,-118z"/>
  <path class="fil1" d="M4714 3290c-213,-173 -242,-468 -214,-729 5,-44 3,-90 27,-127 24,-37 74,-59 112,-38 31,18 43,56 58,89 21,43 54,80 95,105 27,16 60,28 89,15 39,-18 47,-70 50,-113 5,-81 11,-162 16,-243 3,-43 6,-88 23,-128 17,-40 49,-76 91,-85 42,-9 91,19 97,62 2,18 -3,36 -3,54 0,18 7,39 24,45 17,6 35,-5 49,-16 48,-41 83,-95 115,-149 33,-54 64,-110 109,-154 44,-45 103,-79 166,-77 62,1 126,44 137,107 11,62 -29,122 -72,168 -63,69 -136,129 -216,177 -14,9 -30,18 -36,34 -12,28 14,59 42,71 32,13 67,12 100,19 34,6 69,24 80,57 15,46 -26,89 -65,117 -78,56 -165,98 -256,124 -33,9 -67,17 -95,38 -27,21 -46,58 -33,90 13,32 53,45 86,41 34,-4 65,-20 98,-29 61,-18 138,-8 172,46 23,36 21,83 6,123 -16,39 -44,72 -74,102 -104,105 -233,186 -375,224 -142,38 -271,41 -405,-19z"/>
  <path class="fil2" d="M4697 3484c17,-103 49,-224 97,-353 48,-129 113,-266 185,-407 18,-35 36,-70 54,-104 18,-34 36,-68 55,-100 38,-64 80,-123 122,-178 41,-55 83,-105 122,-152 39,-47 76,-90 112,-127 71,-76 136,-130 181,-165 23,-18 41,-31 53,-40 6,-4 11,-7 14,-10 3,-2 5,-3 5,-3 0,0 -1,1 -5,4 -3,3 -8,6 -14,11 -12,9 -30,23 -53,41 -45,36 -109,91 -179,167 -35,38 -72,81 -111,128 -39,47 -80,98 -121,152 -41,55 -83,114 -121,178 -19,32 -37,66 -55,100 -18,34 -36,69 -54,104 -72,141 -137,278 -186,406 -49,128 -81,248 -99,351l-6 -1z"/>
  <path class="fil2" d="M5091 2519c-1,0 -2,-7 -3,-19 -1,-12 -3,-30 -4,-52 -3,-44 -5,-104 -7,-171 -2,-67 -5,-127 -8,-170 -2,-22 -3,-39 -5,-52 -1,-12 -2,-19 -1,-19 1,0 2,7 4,19 2,12 5,30 7,51 5,44 9,104 11,171 2,66 3,125 5,171 1,21 1,38 2,52 0,12 0,19 0,19z"/>
  <path class="fil2" d="M5657 2456c0,1 -8,1 -22,1 -14,0 -35,0 -61,1 -52,2 -123,7 -201,15 -78,9 -149,20 -199,30 -25,5 -46,9 -60,12 -14,3 -22,4 -22,4 0,-1 8,-3 21,-7 14,-4 34,-9 60,-14 51,-11 121,-23 200,-32 78,-9 150,-13 202,-13 26,0 47,0 61,1 14,1 22,2 22,2z"/>
  <path class="fil2" d="M4802 3121c0,0 -1,-2 -3,-7 -2,-6 -5,-13 -8,-21 -7,-18 -16,-45 -27,-78 -22,-66 -50,-158 -79,-260 -29,-102 -56,-194 -77,-261 -10,-32 -19,-59 -25,-78 -3,-9 -5,-16 -7,-21 -1,-5 -2,-8 -2,-8 0,0 1,2 3,7 2,6 5,13 8,21 7,18 16,45 27,78 22,66 50,158 79,260 29,102 56,194 77,261 10,32 19,59 25,78 3,9 5,16 7,21 1,5 2,8 2,8z"/>
  <path class="fil2" d="M5561 2937c0,0 -3,1 -8,2 -6,2 -13,3 -22,6 -20,5 -48,12 -81,20 -69,17 -163,41 -268,68 -105,27 -199,50 -268,66 -35,8 -63,14 -82,17 -9,2 -16,3 -22,4 -5,1 -8,1 -8,1 0,0 3,-1 8,-3 6,-2 13,-3 22,-6 20,-5 48,-12 81,-20 69,-17 163,-41 268,-68 104,-27 199,-50 268,-66 35,-8 63,-14 82,-17 9,-2 16,-3 22,-4 5,-1 8,-1 8,-1z"/>
  <path class="fil4" d="M5877 5716c0,2 -1314,4 -2935,4 -1621,0 -2935,-2 -2935,-4 0,-2 1314,-4 2935,-4 1621,0 2935,2 2935,4z"/>
  <path class="fil2" d="M1780 423l335 1022c133,37 269,67 430,14l763 -276 -453 -1167 -1075 407z"/>
  <polygon class="fil5" points="1708,390 2043,1411 2473,1426 3236,1150 2849,2 "/>
  <path class="fil5" d="M2144 1289l-101 123c0,0 90,49 182,51 92,2 172,-9 248,-37 0,0 -194,12 -329,-137z"/>
  <path class="fil6" d="M2246 1463c-7,0 -14,0 -21,0 -92,-2 -182,-51 -182,-51 3,1 6,1 9,1 35,0 64,-67 93,-124 116,129 278,137 319,137 6,0 10,0 10,0 -70,25 -144,37 -227,37z"/>
  <polygon class="fil2" points="1715,646 2104,228 2017,145 1616,561 "/>
  <polygon class="fil2" points="3072,201 2542,-12 2496,99 3029,324 "/>
  <path class="fil4" d="M2845 408c1,2 -193,70 -433,151 -240,82 -434,146 -435,144 -1,-2 193,-70 433,-151 239,-82 434,-146 435,-144z"/>
  <path class="fil4" d="M2894 565c1,2 -193,70 -432,151 -240,82 -434,146 -435,144 -1,-2 193,-69 433,-151 239,-82 434,-146 435,-144z"/>
  <path class="fil4" d="M2946 702c1,2 -193,70 -432,151 -240,82 -434,146 -435,144 -1,-2 193,-70 433,-151 239,-81 434,-146 435,-144z"/>
  <path class="fil4" d="M2991 836c1,2 -193,70 -432,151 -240,82 -434,146 -435,144 -1,-2 193,-70 433,-151 239,-82 434,-146 435,-144z"/>
  <path class="fil5" d="M3505 3762l-67 626c0,0 -131,-198 -220,-110 -84,84 -234,698 -234,698 0,0 -2,200 104,253 341,169 721,-150 721,-150l-54 -1789c-141,119 -231,288 -251,472z"/>
  <path class="fil7" d="M4656 3328l-590 -47c-4,-69 1,-336 1,-336 0,0 -246,-38 -249,-284 -3,-246 40,-810 40,-810 284,-122 613,-81 858,108l36 28 -96 1340z"/>
  <path class="fil8" d="M4067 2942c0,0 155,13 320,-91 0,0 -76,177 -321,155l1 -64z"/>
  <path class="fil7" d="M4722 2242c4,-2 169,-50 163,118 -5,168 -173,128 -173,123 0,-5 10,-241 10,-241z"/>
  <path class="fil8" d="M4766 2421c1,-1 3,2 8,5 5,2 13,4 22,1 18,-6 34,-34 36,-64 1,-15 -2,-30 -7,-42 -5,-12 -12,-21 -21,-23 -9,-2 -15,3 -18,7 -2,5 -1,8 -2,8 0,0 -4,-3 -2,-10 1,-3 3,-7 7,-10 4,-3 10,-5 16,-4 13,1 24,14 30,27 6,14 10,30 9,47 -2,34 -21,65 -45,71 -12,3 -22,-1 -27,-5 -5,-4 -6,-8 -5,-8z"/>
  <path class="fil4" d="M3912 2232c-1,19 14,34 34,35 19,1 36,-13 36,-32 1,-19 -14,-34 -34,-35 -19,-1 -36,13 -36,32z"/>
  <path class="fil4" d="M3905 2197c4,5 31,-15 69,-15 38,0 65,19 70,14 2,-2 -2,-10 -14,-19 -12,-9 -32,-17 -56,-17 -24,0 -43,9 -55,18 -12,9 -16,17 -13,19z"/>
  <path class="fil4" d="M4282 2245c-1,19 15,34 34,35 19,1 36,-13 36,-32 1,-19 -15,-34 -34,-35 -19,-1 -36,13 -36,32z"/>
  <path class="fil4" d="M4276 2204c4,5 31,-15 69,-15 38,0 65,19 70,14 2,-2 -2,-10 -14,-19 -12,-9 -32,-17 -56,-17 -24,0 -43,9 -55,18 -12,9 -16,17 -13,19z"/>
  <path class="fil4" d="M4139 2484c0,-2 -23,-6 -61,-11 -10,-1 -19,-3 -20,-9 -2,-7 2,-17 6,-29 9,-23 19,-48 29,-73 40,-105 68,-190 64,-192 -4,-2 -40,82 -79,186 -10,26 -19,50 -27,74 -4,11 -10,23 -5,38 3,7 10,12 16,14 6,2 12,2 16,2 38,2 62,2 62,0z"/>
  <path class="fil4" d="M4266 2056c4,10 41,5 86,11 44,4 80,17 86,8 3,-4 -4,-14 -18,-24 -14,-10 -37,-19 -64,-22 -27,-3 -51,1 -67,8 -16,7 -24,15 -23,19z"/>
  <path class="fil4" d="M3918 2088c7,9 33,0 64,-1 31,-2 58,6 64,-3 3,-4 -2,-13 -13,-21 -11,-8 -30,-15 -52,-14 -21,1 -40,8 -51,17 -11,9 -15,18 -12,22z"/>
  <path class="fil4" d="M3738 1697c-3,-30 9,-63 33,-81 25,-18 63,-17 83,6 -12,-41 22,-88 65,-91 40,-3 74,28 113,38 38,10 78,1 115,-13 36,-15 70,-35 107,-48 77,-28 165,-25 239,10 74,34 134,98 163,175 54,-17 115,10 148,56 33,46 42,105 35,161 -4,38 -15,74 -28,110 0,3 0,6 0,9 -3,135 -18,294 -75,295 -100,2 -77,-188 -77,-188 -123,-48 -77,-232 -108,-260 -31,-28 -95,-93 -353,39 -100,51 -233,50 -306,33 -2,0 -4,-1 -6,-1l-1 0 -2 -1c-23,-6 -46,-15 -66,-28 -23,-15 -45,-35 -55,-61 -10,-26 -6,-58 14,-77 -19,-24 -34,-52 -37,-83z"/>
  <path class="fil5" d="M5139 4869l19 349 42 501 -1578 0 69 -740 -134 -1169c12,-413 170,-585 495,-624 1,0 -6,1 -13,2 -7,1 -14,2 -13,2 25,-3 22,-3 19,-2 -2,0 -5,1 6,-1 210,65 420,64 630,0 97,4 178,34 261,50 261,50 475,251 527,427 43,144 353,1396 353,1396l-618 0 -64 -189z"/>
  <path class="fil8" d="M4107 2600c6,15 12,30 22,43 10,13 24,23 41,24 17,1 34,-9 43,-24 10,-14 13,-32 12,-49 -1,-16 -8,-34 -23,-36 -6,-1 -13,2 -19,4 -27,11 -54,22 -81,33l5 5z"/>
  <path class="fil4" d="M4139 2667c0,-3 18,5 43,-5 12,-5 25,-15 33,-30 7,-15 9,-35 1,-53 -2,-4 -4,-9 -7,-12 -3,-3 -3,-3 -6,-3 -3,1 -9,3 -13,5 -5,2 -9,4 -13,5 -17,7 -33,13 -46,18 -27,10 -43,15 -44,13 -1,-2 15,-10 40,-23 13,-6 28,-13 45,-21 4,-2 9,-4 13,-6 5,-2 8,-4 15,-6 3,-1 8,-1 12,0 4,2 7,5 9,7 4,5 7,10 9,15 10,22 7,47 -2,65 -10,19 -27,29 -41,33 -15,5 -27,3 -35,1 -8,-2 -12,-5 -12,-6z"/>
  <path class="fil7" d="M3553 4800l-372 -1141 -34 -192c0,0 -101,-427 -106,-469 -5,-49 -30,-58 -48,-55 -28,5 -44,42 -41,84 1,15 28,243 28,243 0,0 -12,-18 -51,-57 -38,-39 -121,-55 -202,-44 -81,11 -103,22 -100,54 1,13 9,22 19,29 16,11 36,15 56,13 130,-16 173,50 173,50l4 25c0,0 -86,-48 -146,-17 -10,5 -17,11 -24,18 -35,4 -67,27 -82,58 -15,33 -12,74 9,104 10,14 27,26 44,21 9,-3 15,-10 22,-17 3,-4 7,-7 11,-10l22 68c0,0 58,151 76,220l181 1149c25,159 176,267 335,239 173,-30 279,-207 224,-373z"/>
  <path class="fil7" d="M3142 3647c-23,9 -50,-6 -65,-26 -15,-20 -23,-44 -37,-65 -41,-62 -127,-85 -165,-149 -5,-9 -9,-22 -1,-29 7,-7 18,-3 27,1 76,32 152,64 228,96l13 172z"/>
  <path class="fil8" d="M3129 3474c0,-1 -8,-5 -24,-13 -16,-7 -38,-18 -66,-30 -29,-13 -63,-27 -99,-43 -9,-4 -19,-8 -29,-12 -9,-3 -20,-12 -37,-6 -8,3 -13,13 -12,20 0,8 3,14 6,19 6,11 13,20 22,29 34,36 75,56 106,81 16,12 29,26 39,40 10,14 17,30 24,43 14,28 38,45 56,48 18,3 28,-4 27,-4 0,-1 -10,3 -26,-1 -16,-5 -36,-20 -48,-48 -7,-13 -13,-29 -23,-45 -10,-16 -24,-31 -40,-44 -32,-27 -73,-48 -104,-81 -8,-8 -14,-17 -20,-26 -5,-9 -6,-19 0,-20 6,-3 16,2 26,6 10,4 19,8 29,12 37,15 71,29 100,41 29,11 52,20 68,26 16,6 25,9 26,8z"/>
  <path class="fil8" d="M2884 3339c-2,1 -1,-20 -20,-42 -9,-11 -24,-20 -43,-25 -19,-4 -40,-4 -63,-2 -23,2 -45,4 -65,1 -20,-3 -38,-9 -51,-19 -13,-10 -17,-24 -17,-32 0,-9 3,-13 3,-13 1,0 0,5 1,13 1,8 5,19 17,27 12,8 29,14 48,16 19,2 41,0 64,-2 23,-2 46,-2 65,3 20,5 36,16 46,29 10,12 13,25 15,33 1,9 1,13 0,13z"/>
  <path class="fil8" d="M2952 3010c1,0 3,17 6,45 3,31 7,68 11,110 5,41 9,78 12,109 3,28 5,45 4,46 -1,0 -5,-17 -10,-45 -5,-28 -10,-67 -15,-109 -4,-43 -7,-82 -8,-110 -1,-28 0,-46 1,-46z"/>
  <path class="fil8" d="M2838 3397c0,1 -5,-1 -14,-4 -8,-2 -22,-6 -35,2 -6,4 -10,11 -10,20 0,9 3,19 5,29 3,10 5,24 -2,36 -6,12 -19,20 -33,22 -14,2 -28,-4 -37,-12 -10,-8 -17,-18 -20,-30 -6,-22 -6,-42 -5,-59 1,-17 4,-30 8,-39 4,-9 8,-12 8,-12 1,0 -2,5 -5,13 -3,9 -4,22 -4,38 0,16 1,36 7,56 6,18 26,38 49,35 11,-1 21,-8 26,-17 5,-9 4,-20 1,-30 -2,-10 -5,-21 -5,-31 0,-10 6,-21 14,-25 17,-9 32,-3 40,0 9,4 13,7 13,7z"/>
  <path class="fil8" d="M2715 3484c0,0 2,5 0,13 -2,8 -9,20 -24,26 -15,6 -36,3 -52,-10 -16,-13 -26,-35 -29,-58 -3,-23 3,-46 13,-63 10,-18 24,-30 37,-37 13,-8 25,-11 33,-12 8,-1 13,-1 13,0 0,2 -19,2 -43,17 -12,8 -25,19 -33,36 -9,16 -14,37 -11,58 2,21 11,41 25,52 14,12 32,15 44,10 13,-4 20,-14 23,-21 3,-7 2,-12 3,-12z"/>
  <path class="fil8" d="M2889 3620c0,-1 8,-3 22,-2 14,1 34,7 51,24l-7 3c0,-10 0,-20 2,-31 7,-60 35,-102 37,-101 3,1 -21,44 -28,102 -1,10 -2,21 -2,30l0 10 -7 -7c-15,-15 -33,-22 -45,-24 -13,-3 -21,-2 -21,-3z"/>
  <path class="fil8" d="M2843 3231c2,1 -5,18 -24,29 -19,11 -38,8 -37,6 0,-3 16,-4 33,-14 17,-9 26,-22 28,-21z"/>
  <path class="fil0" d="M3847 3231c0,0 -5,6 -14,16 -9,11 -23,27 -32,52 -2,6 -3,13 -4,20 0,7 2,14 5,21 8,13 23,23 40,30 35,13 79,17 127,18 24,0 50,1 76,3 13,2 27,3 40,5 14,2 27,5 42,8 56,13 115,34 167,74 26,20 50,44 69,72 5,7 9,15 13,23 4,8 7,16 10,24 6,16 11,33 14,51 14,70 3,147 -33,213 -36,67 -98,115 -164,140 -33,13 -68,19 -102,20 -34,1 -68,-5 -99,-12 -31,-7 -61,-14 -91,-16 -29,-2 -58,2 -83,15 -25,12 -45,31 -62,50 -17,19 -32,40 -47,59 -29,39 -59,73 -95,91 -17,9 -36,14 -53,14 -17,0 -32,-3 -45,-8 -13,-5 -23,-12 -31,-20 -8,-8 -12,-15 -16,-22 -6,-13 -5,-21 -5,-21 1,0 1,8 8,20 3,6 8,13 16,20 8,7 18,13 30,17 24,9 59,11 92,-7 33,-18 62,-51 90,-90 14,-19 29,-40 46,-61 18,-20 38,-40 65,-53 26,-14 58,-19 89,-17 31,2 62,9 93,16 31,7 63,12 96,11 33,-1 66,-8 98,-20 63,-24 122,-70 156,-134 34,-63 45,-137 31,-204 -3,-17 -8,-33 -14,-49 -3,-8 -6,-16 -10,-23 -4,-7 -8,-14 -12,-21 -18,-27 -41,-50 -66,-69 -50,-39 -107,-60 -162,-73 -14,-3 -27,-6 -41,-8 -13,-2 -27,-3 -40,-5 -26,-2 -51,-3 -75,-4 -48,-2 -93,-6 -130,-21 -18,-7 -35,-18 -43,-34 -4,-8 -6,-16 -6,-24 1,-8 2,-15 5,-22 10,-26 26,-41 35,-52 10,-10 16,-15 17,-14z"/>
  <path class="fil0" d="M4904 4157c-1,0 -4,-11 -7,-31 -3,-20 -2,-51 6,-87 8,-36 26,-78 54,-118 28,-40 68,-78 117,-108 49,-29 101,-46 148,-56 48,-10 92,-13 128,-13 37,0 66,2 87,4 20,2 31,5 31,5 0,1 -11,1 -31,0 -20,-1 -50,-1 -87,0 -36,1 -79,6 -126,16 -47,10 -96,28 -144,55 -47,28 -85,65 -113,103 -28,38 -46,78 -55,113 -9,35 -11,64 -10,84 1,20 2,31 1,32z"/>
  <path class="fil0" d="M5663 4398c1,1 -5,10 -16,24 -12,15 -30,35 -56,57 -26,22 -59,45 -100,64 -41,19 -88,34 -140,41 -52,6 -102,3 -146,-6 -44,-9 -82,-23 -113,-39 -30,-15 -53,-31 -68,-42 -15,-12 -22,-19 -22,-20 2,-2 33,25 94,53 60,28 152,52 252,40 101,-12 184,-58 236,-99 52,-41 77,-76 79,-74z"/>
  <path class="fil0" d="M4965 4354c0,1 -4,2 -13,5 -8,3 -20,9 -32,21 -12,12 -23,29 -32,51 -9,22 -16,49 -22,78 -6,30 -11,63 -23,98 -6,17 -13,35 -24,52 -11,17 -24,32 -40,45 -32,27 -72,45 -115,58 -43,13 -88,20 -134,29 -91,17 -174,50 -237,99 -32,24 -58,51 -79,80 -20,29 -35,59 -45,87 -20,57 -20,107 -15,141 5,33 13,51 11,52 0,0 -2,-4 -6,-12 -2,-4 -4,-10 -5,-16 -2,-6 -4,-14 -5,-22 -7,-34 -8,-85 11,-145 10,-29 24,-60 45,-91 21,-30 48,-58 81,-83 65,-51 150,-85 243,-103 46,-9 91,-16 132,-28 41,-12 80,-30 110,-55 15,-12 28,-27 38,-42 10,-15 18,-32 23,-49 11,-33 17,-66 24,-96 7,-30 15,-57 25,-79 10,-23 22,-40 36,-52 13,-12 26,-17 35,-20 9,-2 14,-3 14,-2z"/>
  <path class="fil0" d="M4593 4296c1,0 6,9 7,28 2,19 -3,48 -22,77 -10,14 -23,28 -42,38 -9,5 -19,8 -30,11 -11,2 -22,3 -34,1 -23,-2 -47,-12 -67,-27 -20,-15 -36,-38 -43,-64 -4,-17 -5,-35 -1,-51 4,-17 13,-32 22,-44 9,-12 19,-24 31,-33 5,-5 11,-9 18,-13 6,-4 13,-7 22,-8l2 12c-2,1 -5,1 -7,2l-3 -12c28,-8 55,-4 77,4 22,8 37,21 48,33 11,12 17,24 20,32 3,8 4,13 3,13 -2,1 -6,-18 -28,-40 -11,-11 -26,-22 -47,-29 -20,-7 -45,-9 -69,-2l-3 -12c2,-1 4,-1 7,-2l2 12c-10,1 -21,9 -31,18 -10,9 -19,20 -28,32 -9,12 -16,24 -19,38 -3,14 -3,30 1,44 6,23 20,43 38,57 18,14 39,22 59,25 10,1 20,1 30,-1 10,-2 19,-5 27,-9 17,-8 29,-21 39,-33 19,-26 25,-53 25,-71 0,-18 -3,-28 -2,-29z"/>
  <path class="fil4" d="M3697 3842c0,0 0,1 0,4 0,3 0,6 0,11 -1,10 -1,24 -2,42 -2,36 -4,89 -7,154 -5,130 -11,310 -15,509 -4,199 -7,379 -9,509 -1,65 -2,117 -2,154 0,18 -1,32 -1,42 0,4 0,8 0,11 0,2 0,4 0,4 0,0 0,-1 0,-4 0,-3 0,-6 0,-11 0,-10 0,-24 0,-42 0,-37 0,-90 0,-154 1,-130 2,-310 7,-509 4,-199 10,-379 17,-509 4,-65 7,-118 10,-154 1,-18 3,-32 3,-42 0,-4 1,-8 1,-11 0,-2 0,-4 1,-4z"/>
  <path class="fil9" d="M3477 5144c-16,0 -31,-3 -46,-10l0 0c2,-1 3,-2 5,-3 0,0 1,0 1,0 13,0 37,-21 61,-55 28,-33 48,-71 59,-113 21,-60 28,-125 1,-175 -23,-41 -57,-124 -46,-170 6,-26 26,-46 43,-66 29,-35 54,-74 73,-115l34 297c-1,70 -2,136 -2,197 -5,51 -10,92 -10,92 -32,62 -105,120 -173,120z"/>
  <path class="fil9" d="M3662 4735l-34 -297c21,-45 35,-94 41,-143 1,25 1,51 1,76 -2,61 -3,125 -5,191 -1,60 -2,118 -3,174z"/>
  <path class="fil10" d="M3432 5134l5 -3c0,0 0,0 0,0 -2,1 -3,2 -5,3zm67 -58c22,-30 44,-70 59,-113 -11,42 -31,80 -59,113z"/>
  <path class="fil11" d="M3659 4932c1,-60 1,-127 2,-197 1,-56 2,-114 3,-174 1,-66 3,-130 5,-191 1,133 -7,266 -2,399 1,44 -3,109 -8,162z"/>
  <path class="fil9" d="M5052 5195c-4,0 -9,0 -13,-1 -29,-6 -52,-31 -64,-58 -12,-28 -14,-58 -17,-88 -17,-216 -35,-432 -52,-648 5,-7 10,-13 15,-18 12,-12 24,-18 32,-21 1,-1 3,-1 4,-2 38,133 76,266 113,400 21,75 43,151 62,227 11,45 21,92 8,136 -11,40 -48,75 -88,75zm-147 -806c-8,-97 -16,-194 -23,-292l2 5c24,84 48,169 72,253 -1,0 -3,1 -4,1 -9,2 -22,8 -35,20 -4,4 -8,8 -12,12z"/>
  <path class="fil12" d="M4906 4398c0,-3 -1,-7 -1,-10 4,-5 8,-9 12,-12 13,-12 26,-17 35,-20 2,0 3,-1 4,-1 0,1 0,2 1,2 -1,0 -3,1 -4,2 -8,3 -20,9 -32,21 -5,5 -10,11 -15,18z"/>
  <path class="fil0" d="M4011 5719c-2,-1 13,-16 21,-50 8,-34 3,-87 -24,-145 -13,-29 -32,-59 -50,-91 -18,-33 -38,-69 -47,-112 -9,-43 -4,-90 10,-134 14,-45 34,-88 50,-134 35,-90 33,-187 7,-266 -13,-40 -31,-75 -53,-105 -22,-30 -46,-55 -70,-75 -49,-40 -97,-61 -130,-73 -34,-11 -53,-14 -53,-16 0,-1 5,0 14,1 9,1 23,4 40,9 35,10 84,30 135,70 25,20 51,45 74,76 23,31 42,67 56,108 14,41 21,86 21,133 0,47 -10,96 -27,142 -17,46 -37,90 -50,133 -14,43 -19,87 -10,128 8,40 27,76 44,109 18,33 36,63 49,93 26,60 30,115 20,150 -5,18 -12,30 -17,38 -6,8 -9,11 -9,11z"/>
  <path class="fil0" d="M5315 3434c1,0 -3,11 -13,28 -11,17 -30,39 -60,59 -30,20 -71,35 -118,39 -47,4 -100,-3 -151,-19 -52,-16 -99,-42 -132,-77 -17,-17 -30,-36 -39,-56 -9,-20 -13,-39 -15,-57 -3,-36 6,-65 15,-83 2,-5 5,-8 7,-11 2,-3 4,-6 6,-8 4,-4 6,-6 6,-5 1,1 -6,9 -14,27 -8,17 -15,45 -10,79 2,17 7,35 16,53 9,18 21,35 37,51 32,32 77,56 127,72 50,16 101,23 146,20 45,-3 85,-17 114,-35 30,-18 49,-38 61,-53 12,-15 17,-25 18,-24z"/>
  <path class="fil4" d="M5125 4928c0,0 -1,-1 -1,-4 -1,-3 -2,-7 -4,-12 -3,-11 -8,-26 -13,-45 -11,-40 -27,-96 -47,-166 -39,-140 -94,-334 -153,-547 -30,-107 -58,-209 -84,-302 -13,-46 -24,-91 -30,-134 -6,-43 -6,-83 0,-119 12,-73 48,-125 79,-151 15,-14 30,-21 39,-26 5,-2 8,-4 11,-5 3,-1 4,-2 4,-1 1,1 -22,7 -52,34 -30,27 -64,78 -75,150 -5,36 -5,76 1,118 6,42 17,86 30,133 26,93 54,194 84,301 59,214 112,407 151,548 19,70 34,126 45,166 5,19 9,34 12,45 1,5 2,9 3,12 1,3 1,4 1,4z"/>
  <path class="fil13" d="M4559 1852c-1,0 3,-11 0,-30 -2,-19 -13,-46 -38,-69 -25,-24 -65,-38 -111,-37 -45,0 -94,15 -144,32 -25,8 -50,16 -74,22 -25,5 -49,8 -72,9 -46,1 -88,-6 -121,-16 -33,-10 -59,-23 -76,-32 -9,-5 -15,-9 -19,-12 -4,-3 -6,-4 -6,-5 0,-1 9,5 27,14 17,9 43,20 76,30 33,9 74,16 119,14 23,-1 46,-4 70,-9 24,-5 49,-13 74,-22 50,-17 99,-32 146,-32 46,-1 89,14 114,39 26,24 36,53 38,72 2,20 -3,30 -3,30z"/>
  <path class="fil13" d="M4750 2268c0,0 -1,-2 -3,-5 -2,-3 -5,-9 -8,-16 -6,-14 -14,-34 -20,-61 -6,-27 -9,-59 -6,-95 2,-36 13,-74 22,-114 9,-40 11,-79 0,-113 -5,-17 -13,-31 -24,-43 -10,-11 -23,-19 -35,-23 -25,-9 -48,-5 -61,2 -13,7 -18,14 -19,13 0,0 4,-8 18,-16 13,-7 37,-13 64,-4 13,4 27,12 38,24 11,12 20,27 25,45 11,35 9,76 1,116 -9,40 -20,78 -22,113 -3,35 0,67 5,93 5,26 12,47 17,61 5,14 9,22 8,22z"/>
  <path class="fil13" d="M4583 1833c0,0 0,-3 0,-10 0,-7 1,-17 1,-28 0,-24 1,-60 -11,-102 -6,-21 -17,-42 -33,-62 -16,-19 -38,-37 -66,-44 -27,-7 -58,-5 -88,4 -30,8 -59,23 -88,40 -29,16 -57,33 -87,45 -30,11 -61,17 -90,18 -29,1 -57,-3 -82,-10 -25,-7 -47,-17 -67,-28 -38,-22 -64,-48 -79,-67 -8,-10 -13,-18 -16,-23 -3,-6 -5,-9 -5,-9 0,0 2,3 6,8 4,5 9,13 17,22 16,19 41,44 79,65 19,10 41,19 66,26 25,7 52,10 81,9 29,-1 58,-7 87,-18 29,-12 57,-28 86,-45 29,-16 59,-32 90,-40 31,-9 63,-11 92,-3 29,8 52,26 69,46 17,20 27,43 33,64 12,43 10,79 9,104 -1,12 -2,22 -2,28 -1,6 -1,10 -2,10z"/>
  <path class="fil7" d="M4216 5305l1039 -155 -17 -92 559 0 16 142c51,263 -150,508 -418,511l-1211 -13 32 -392z"/>
  <path class="fil7" d="M4291 5323c-6,2 -76,-30 -138,-59 -67,-31 -140,-45 -213,-41l-289 15c0,0 18,48 48,65 31,17 210,21 210,21l-9 9c-38,39 -89,62 -144,63l-28 1c-20,-2 -41,-6 -60,-12l-71 -29c-22,-10 -44,-8 -54,14 -8,20 -2,47 57,76 33,17 155,59 155,59 0,0 2,34 7,51 5,18 53,35 53,35 0,0 30,62 43,76 6,6 49,20 95,33 75,21 153,20 228,-2l110 -33 0 -335 0 -7z"/>
  <path class="fil8" d="M3896 5542c0,2 -34,0 -75,-11 -41,-11 -71,-26 -71,-28 1,-2 32,10 72,21 40,11 74,16 73,18z"/>
  <path class="fil8" d="M3886 5610c0,2 -19,3 -41,-3 -22,-6 -38,-16 -37,-18 1,-2 17,5 38,11 21,6 39,8 39,10z"/>
  <path class="fil8" d="M5529 5393c-1,0 -8,-20 -25,-51 -8,-15 -19,-33 -33,-51 -14,-18 -31,-37 -50,-55 -20,-18 -40,-32 -60,-44 -20,-12 -38,-21 -54,-28 -32,-13 -53,-18 -53,-19 0,-1 5,0 15,2 5,1 11,2 17,5 7,2 14,4 22,8 17,6 36,15 56,27 20,12 41,27 61,45 20,18 37,37 51,56 14,19 25,37 32,52 4,8 7,15 10,22 3,6 5,12 6,17 3,9 5,15 4,15z"/>
  <path class="fil8" d="M3939 5297c1,1 -8,10 -22,24 -15,14 -36,32 -63,48 -27,16 -54,24 -74,28 -20,4 -32,4 -33,4 -1,-3 50,-7 103,-38 26,-15 48,-33 63,-45 15,-13 25,-21 26,-20z"/>
  <path class="fil5" d="M951 4968c25,0 -189,575 -244,721 -6,16 -10,31 -10,31l1498 3 -18 -1393 0 -3 -125 -997c-1,-10 -8,-18 -18,-21 -59,-16 -273,-71 -436,-77 -192,-7 -469,31 -469,31 0,0 -249,26 -386,75 -11,4 -18,15 -16,27l225 1604z"/>
  <path class="fil4" d="M1642 4350c0,0 -2,7 -8,18 -3,6 -6,13 -11,20 -5,8 -9,17 -16,26 -6,9 -13,20 -22,30 -8,11 -18,21 -28,32 -21,21 -46,43 -75,62 -29,19 -59,33 -87,44 -14,5 -27,10 -40,13 -13,4 -25,6 -36,8 -11,2 -21,3 -30,4 -9,1 -17,1 -23,1 -13,0 -20,0 -20,0 0,-2 28,-1 72,-10 11,-2 23,-5 35,-9 13,-3 26,-8 40,-13 27,-11 56,-26 85,-44 28,-19 53,-40 74,-60 10,-11 20,-21 28,-31 9,-10 16,-20 22,-29 26,-37 37,-62 38,-62z"/>
  <path class="fil14" d="M747 5580l0 0 51 -150c1,0 3,0 4,0 -20,54 -39,105 -55,150z"/>
  <path class="fil9" d="M912 5614c-56,0 -112,-11 -165,-33 16,-44 35,-96 55,-150 8,0 15,0 23,0 216,0 394,-85 394,-85l0 0c0,0 0,-3 0,-9 0,-6 -1,-15 -2,-25 -2,-22 -5,-53 -8,-91 0,-2 0,-5 -1,-7 249,-38 496,-54 758,-62 3,0 7,0 10,0 23,0 47,3 61,21 16,20 10,50 -6,69 -16,19 -40,30 -64,39 -116,43 -241,58 -364,67 -36,3 -72,5 -108,9 -25,-42 -46,-73 -50,-73 0,0 0,0 0,0 -3,2 12,34 35,75 -51,7 -101,20 -146,45 -38,21 -71,51 -104,80 1,-26 -1,-45 -4,-45 0,0 0,0 0,0 -4,0 -6,25 -11,58 -12,10 -25,21 -38,30 -78,57 -171,87 -265,87z"/>
  <path class="fil4" d="M1164 1798c120,-122 309,-194 465,-125 105,46 177,145 269,213 67,50 150,88 186,164 31,67 16,145 9,218 -8,73 -2,158 55,205 30,25 69,34 103,54 68,39 108,114 122,191 14,77 7,155 -1,233l-322 61 -53 -89 -18 140 -411 37 -401 -1302z"/>
  <path class="fil15" d="M1111 1931l-1 90 -25 1344c-2,156 147,289 314,290 169,1 237,-126 242,-283 5,-165 13,-339 13,-339 0,0 214,-29 266,-306 26,-138 25,-364 18,-550 -6,-167 -149,-295 -316,-282l-511 36z"/>
  <path class="fil4" d="M1865 2356c0,19 -16,34 -35,35 -20,1 -36,-14 -36,-33 0,-19 16,-34 35,-35 20,-1 36,14 36,33z"/>
  <path class="fil4" d="M1886 2294c-5,5 -31,-16 -69,-17 -38,-2 -67,17 -71,13 -2,-2 3,-10 15,-19 12,-9 33,-17 57,-16 24,1 44,10 55,19 12,9 15,18 13,20z"/>
  <path class="fil4" d="M1488 2356c0,19 -16,34 -35,35 -20,1 -36,-14 -36,-33 0,-19 16,-34 35,-35 20,-1 36,14 36,33z"/>
  <path class="fil4" d="M1509 2291c-5,5 -31,-16 -69,-17 -38,-2 -67,17 -71,13 -2,-2 3,-10 15,-19 12,-9 33,-17 57,-16 24,1 44,10 55,19 12,9 15,18 13,20z"/>
  <path class="fil4" d="M1640 2579c0,-2 24,-6 63,-10 10,-1 19,-2 21,-9 3,-7 -1,-18 -6,-29 -9,-24 -18,-49 -27,-75 -37,-107 -64,-195 -60,-197 4,-1 38,84 75,191 9,26 18,52 26,76 3,11 9,24 4,39 -3,7 -10,12 -17,14 -6,2 -12,2 -17,2 -39,1 -63,1 -63,-2z"/>
  <path class="fil16" d="M1654 3033c0,0 -187,7 -369,-109 0,0 85,193 364,175l6 -65z"/>
  <path class="fil16" d="M1622 2671c-13,-19 -37,-29 -61,-27 -17,1 -34,9 -44,22 -10,13 -13,32 -4,46 10,15 31,19 50,14 18,-5 35,-16 50,-28 4,-3 9,-7 11,-11 3,-4 3,-10 0,-14l-2 -1z"/>
  <path class="fil4" d="M1527 2602c6,0 5,41 40,72 35,31 79,27 79,33 1,3 -10,8 -29,8 -18,0 -45,-7 -66,-25 -21,-19 -30,-43 -31,-60 -1,-17 4,-28 7,-27z"/>
  <path class="fil4" d="M1521 2179c-4,10 -42,4 -87,9 -45,3 -82,15 -88,6 -3,-5 4,-14 19,-24 15,-10 38,-19 65,-21 27,-2 52,3 68,10 16,7 24,16 23,20z"/>
  <path class="fil4" d="M1887 2216c-8,8 -40,-1 -79,-3 -39,-3 -72,4 -79,-5 -3,-5 2,-13 17,-21 14,-8 38,-14 65,-12 27,1 49,10 63,19 13,9 18,18 14,23z"/>
  <path class="fil5" d="M825 3312c0,0 -447,105 -533,528 -40,195 -96,1312 165,1486 336,224 763,20 763,20l-55 -541 -277 0 -37 -592c10,45 -25,-902 -25,-902z"/>
  <path class="fil5" d="M2413 5172c87,-9 169,-52 226,-118 57,-66 88,-154 84,-241l-182 -775c0,0 -118,-665 -492,-725l127 1014 -12 214c0,0 6,141 20,406l230 225z"/>
  <path class="fil4" d="M2462 4687c0,2 -26,-1 -67,7 -41,8 -96,31 -141,77 -45,46 -66,102 -74,142 -8,41 -4,67 -6,67 0,0 -2,-6 -2,-18 -1,-12 0,-29 3,-50 6,-42 28,-100 74,-147 46,-47 104,-69 145,-77 21,-4 38,-5 50,-4 12,0 18,1 18,2z"/>
  <path class="fil4" d="M1309 1767c50,68 74,119 104,239 15,59 -33,100 -81,136 -22,17 -54,5 -61,-22 0,0 16,184 -50,267 -31,39 -33,88 -25,130 8,43 30,81 59,113 77,81 99,213 45,313 -14,25 -31,49 -42,76 -6,15 -10,32 -9,49 1,20 -13,38 -33,41 -228,33 -460,40 -690,21 -16,-1 -30,-13 -34,-29 -18,-76 12,-159 51,-230 43,-78 98,-154 113,-242 14,-83 -9,-173 25,-250 41,-95 152,-140 208,-227 53,-82 48,-190 95,-275 60,-110 209,-160 324,-110z"/>
  <path class="fil4" d="M1322 1869c87,45 128,152 213,201 77,45 174,33 262,20 -3,-20 -7,-39 -10,-59 9,17 18,35 33,48 15,13 36,20 54,13 30,-12 34,-53 26,-84 -12,-50 -41,-94 -77,-131 -65,-66 -155,-108 -248,-116 -93,-7 -188,20 -263,75l11 33z"/>
  <path class="fil4" d="M2141 3846c0,0 1,4 1,11 0,8 1,18 1,31 1,27 2,66 4,115 4,97 13,231 24,379 11,148 19,282 22,379 1,49 2,88 2,115 0,13 0,23 0,31 0,7 0,11 -1,11 0,0 -1,-4 -1,-11 0,-8 -1,-18 -1,-31 -1,-27 -2,-66 -4,-115 -4,-97 -13,-231 -24,-379 -11,-148 -19,-282 -22,-379 -1,-49 -2,-88 -2,-115 0,-13 0,-23 0,-31 0,-7 0,-11 1,-11z"/>
  <path class="fil4" d="M887 4806c0,0 -1,-3 -1,-8 0,-6 -1,-13 -1,-22 -1,-20 -3,-48 -5,-82 -4,-69 -10,-165 -17,-270 -7,-105 -14,-200 -19,-270 -2,-34 -4,-62 -5,-82 0,-9 -1,-16 -1,-22 0,-5 0,-8 0,-8 0,0 1,3 1,8 1,6 1,13 3,22 2,20 5,48 8,82 6,69 14,165 21,270 7,106 12,201 15,271 1,35 2,63 2,82 0,9 0,16 0,22 0,5 0,8 0,8z"/>
  <path class="fil4" d="M887 4806c0,1 -14,2 -36,9 -22,7 -51,23 -73,49 -23,27 -33,58 -36,81 -4,23 -2,37 -3,37 0,0 -1,-3 -2,-10 -1,-7 -1,-16 0,-28 2,-23 12,-56 36,-85 24,-28 55,-44 77,-50 11,-3 21,-5 28,-5 7,0 10,0 10,0z"/>
  <path class="fil4" d="M1219 5346c0,0 -1,-3 -2,-9 -1,-6 -2,-15 -3,-25 -3,-22 -6,-53 -10,-91 -8,-78 -19,-183 -32,-300 -4,-41 -8,-80 -12,-116l3 3c-89,-1 -166,-1 -222,-1 -27,0 -49,-1 -64,-1 -7,0 -13,0 -17,-1 -4,0 -6,0 -6,-1 0,0 2,0 6,-1 5,0 10,0 17,-1 16,0 38,-1 64,-1 56,0 133,-1 222,-1l3 0 0 3c4,36 8,76 12,116 11,117 22,223 29,300 3,38 6,69 8,91 1,10 1,18 2,25 0,6 0,9 0,9z"/>
  <path class="fil4" d="M1219 5346c0,0 -4,2 -10,4 -8,2 -18,6 -30,10 -27,8 -65,20 -113,33 -48,13 -106,26 -171,36 -65,10 -139,6 -213,-10 -37,-8 -73,-18 -107,-30 -17,-6 -33,-12 -49,-19 -8,-3 -16,-6 -23,-11l-11 -6 -11 -7c-28,-18 -50,-42 -67,-66 -17,-24 -30,-48 -41,-70 -21,-45 -34,-84 -42,-110 -4,-13 -7,-24 -9,-31 -2,-7 -3,-11 -3,-11 0,0 2,4 4,10 3,8 6,18 10,30 9,26 22,64 44,109 11,22 24,46 41,69 17,23 39,46 66,64l10 7 11 5c7,4 15,7 23,10 16,7 32,13 49,19 34,12 69,22 106,30 74,16 146,20 211,11 65,-9 123,-22 171,-34 48,-12 87,-23 114,-31 13,-4 23,-6 31,-8 7,-2 11,-3 11,-2z"/>
  <path class="fil4" d="M983 2096c29,-64 10,-145 -41,-194 -51,-49 -130,-64 -197,-43 -30,10 -58,27 -77,53 -34,47 -27,116 8,162 35,46 94,71 152,74 58,3 116,-13 169,-35l-15 -17z"/>
  <path class="fil13" d="M1445 4299c97,80 326,270 326,270l128 -23 -388 -326c-21,-18 -52,-16 -70,4 -21,22 -19,56 5,75z"/>
  <path class="fil13" d="M1435 4257l-50 -45c-10,-9 -11,-24 -2,-34 9,-11 25,-12 35,-2l48 44 -31 37z"/>
  <path class="fil4" d="M1585 4282c1,1 -13,18 -31,38 -19,20 -35,35 -36,33 -1,-1 13,-18 31,-38 19,-20 35,-35 36,-33z"/>
  <path class="fil4" d="M1589 4441c-1,1 -16,-9 -39,-25 -23,-17 -54,-41 -87,-69 -16,-14 -33,-29 -41,-47 -8,-18 -7,-37 -1,-51 5,-14 14,-23 21,-28 7,-5 11,-6 11,-6 0,1 -4,3 -9,8 -6,5 -13,14 -18,27 -4,13 -5,30 3,47 8,16 23,30 40,44 33,29 63,53 86,71 22,18 36,29 36,29z"/>
  <path class="fil15" d="M1169 4849c92,-31 190,-10 282,-41 31,-10 63,-21 87,-43 29,-26 44,-64 67,-96 70,-94 200,-113 316,-125 27,-3 55,-6 81,1 26,7 52,25 59,51 7,26 -10,59 -37,62 26,1 43,27 48,52 5,25 1,51 4,76 5,36 24,69 23,105 -2,49 -42,89 -87,108 -45,19 -95,21 -144,28 -238,34 -420,169 -650,271l-50 -450z"/>
  <path class="fil15" d="M2076 4743c8,16 32,20 47,10 15,-10 21,-31 18,-49 -3,-18 -12,-34 -23,-49 -20,-27 -43,-50 -67,-74l-74 62 99 100z"/>
  <path class="fil16" d="M2048 4662c0,2 -45,-1 -100,7 -55,8 -97,25 -98,23 0,-1 10,-6 27,-12 17,-6 42,-13 69,-18 28,-4 53,-5 72,-4 18,1 30,3 29,4z"/>
  <path class="fil16" d="M2081 4807c0,2 -38,-6 -85,-4 -47,1 -84,11 -84,8 -1,-2 36,-15 84,-16 48,-1 86,10 85,11z"/>
  <path class="fil16" d="M2073 4764c-1,0 0,-11 -2,-28 -2,-17 -8,-40 -22,-62 -3,-5 -6,-9 -9,-13l-2 -3 2 -2c15,-15 20,-35 19,-49 0,-14 -4,-22 -3,-22 0,0 6,7 8,22 2,14 -2,37 -19,54l0 -5c3,4 7,9 10,14 15,23 21,48 21,65 1,18 -2,28 -3,28z"/>
  <path class="fil13" d="M2076 4735l121 114 15 68 -112 -25c-16,-57 -28,-111 -25,-156z"/>
  <path class="fil1" d="M1912 4880c-2,4 -654,326 -654,326l0 69 665 -346 825 -31 0 -49 -836 31z"/>
  <path class="fil4" d="M1258 5285c5,-3 719,-68 719,-68l770 -319 -825 31 -665 346 0 10z"/>
  <path class="fil15" d="M1942 5114c-6,-37 30,-69 67,-79 37,-10 76,-6 113,-14 24,-5 46,-16 69,-24 114,-44 239,-46 361,-48 15,33 3,75 -28,95 11,29 8,62 -4,91 -12,29 -31,54 -51,78 -17,20 -36,40 -60,50 -24,11 -51,11 -77,12 -82,2 -170,2 -237,-44 -53,-36 -89,-97 -150,-115 5,0 10,0 14,1l-16 -2z"/>
  <path class="fil16" d="M2488 5068c0,1 -6,1 -16,2 -12,0 -26,1 -43,1 -36,1 -86,2 -141,2 -27,0 -54,0 -78,0 -12,0 -24,-1 -34,-5 -10,-4 -19,-10 -25,-18 -6,-8 -8,-17 -6,-25 1,-8 5,-13 9,-17 8,-8 15,-6 15,-6 0,1 -6,1 -13,8 -6,7 -11,23 0,37 5,7 13,12 23,15 10,3 21,4 32,4 24,0 50,0 78,-1 55,0 105,0 141,0 17,0 31,1 43,1 10,0 16,1 16,1z"/>
  <path class="fil16" d="M2446 5137c0,1 -7,2 -20,4 -13,2 -31,5 -54,7 -23,2 -51,4 -81,2 -31,-2 -64,-9 -98,-16 -68,-17 -132,-22 -177,-22 -23,0 -42,1 -54,2 -13,1 -20,1 -20,1 0,0 7,-2 20,-3 13,-2 31,-3 55,-4 46,-1 111,3 179,20 34,8 67,15 97,17 30,2 57,1 80,0 23,-2 41,-3 54,-5 13,-1 20,-2 20,-1z"/>
  <path class="fil16" d="M2378 5210c0,1 -5,1 -15,3 -10,1 -24,3 -42,5 -36,3 -86,6 -140,-5 -55,-10 -97,-38 -130,-51 -33,-14 -55,-16 -55,-17 0,0 6,-1 16,1 10,1 24,5 41,11 34,12 76,39 130,49 53,10 103,8 138,7 17,-1 31,-2 42,-2 10,-1 16,-1 16,0z"/>
  <path class="fil9" d="M2195 4834c0,-2 0,-4 0,-5 7,-48 18,-95 39,-138 23,-46 58,-86 105,-107 21,-9 44,-15 67,-15 28,0 56,7 79,24 13,9 24,20 29,35 5,14 4,32 -7,43 -11,11 -26,13 -42,13 -7,0 -15,0 -21,-1 -3,0 -7,0 -10,0 -98,0 -195,60 -237,149l-1 2z"/>
  <path class="fil11" d="M2193 4837c0,-3 1,-6 1,-8 0,2 0,4 0,5l-1 3z"/>
  <path class="fil14" d="M920 4748c-16,-53 -29,-107 -40,-161 -3,-50 -6,-106 -10,-165 -1,-21 -3,-42 -4,-62l54 388z"/>
  <path class="fil9" d="M937 4804c-6,-18 -12,-37 -17,-55l-54 -388c-5,-68 -10,-129 -14,-180 34,98 90,188 129,284 42,106 62,230 7,330l-40 8c-2,0 -3,0 -5,0 -2,0 -3,0 -5,0z"/>
  <path class="fil14" d="M870 4535c0,-1 0,-2 0,-3l-6 -92c2,33 4,65 6,95z"/>
  <path class="fil9" d="M870 4532c-21,-125 -31,-252 -27,-379 1,2 1,4 2,6 5,69 11,162 18,264 0,5 1,11 1,16l6 92z"/>
  <path class="fil11" d="M880 4587c-4,-18 -7,-35 -10,-53 -2,-30 -4,-62 -6,-95 0,-5 -1,-11 -1,-16 -7,-102 -14,-195 -18,-264 2,7 5,15 7,22 4,51 9,112 14,180 1,20 3,41 4,62 4,59 7,115 10,165z"/>
  <path class="fil11" d="M938 4805c0,-1 0,-1 -1,-2 2,0 3,0 5,0 2,0 3,0 5,0l-9 2z"/>
  <path class="fil5" d="M1085 3272c0,0 67,159 310,149 243,-10 251,-199 251,-199l163 173 -154 318 -207 155 -283 -116 -233 -181 154 -299z"/>
  <path class="fil17" d="M366 4072c0,0 -1,0 -1,0 -3,-3 29,-33 71,-66 39,-32 73,-55 79,-55 0,0 1,0 1,0 2,3 -29,33 -71,66 -39,32 -73,55 -79,55z"/>
  <path class="fil0" d="M630 3779c-1,4 -40,-7 -81,-33 -42,-25 -69,-55 -66,-58 3,-3 33,21 74,45 40,25 75,41 74,45z"/>
  <path class="fil0" d="M838 3798c3,3 -27,47 -62,104 -35,57 -61,104 -65,102 -3,-2 17,-52 53,-110 35,-57 72,-99 75,-96z"/>
  <path class="fil0" d="M660 4280c-3,3 -35,-30 -63,-79 -28,-48 -41,-93 -37,-94 4,-1 22,39 50,86 27,47 54,83 50,86z"/>
  <path class="fil0" d="M474 4514c-4,1 -12,-35 -18,-79 -6,-44 -8,-80 -4,-81 4,-1 12,35 18,79 6,44 8,80 4,81z"/>
  <path class="fil17" d="M650 4578c0,0 0,0 0,0 -3,-2 14,-39 40,-83 25,-43 48,-76 52,-76 0,0 0,0 0,0 3,2 -14,39 -40,83 -25,43 -48,76 -52,76z"/>
  <path class="fil0" d="M445 4819c-3,3 -34,-28 -64,-72 -30,-44 -47,-84 -44,-85 4,-2 26,34 56,77 30,43 55,77 52,80z"/>
  <path class="fil0" d="M722 4780c3,3 -29,40 -71,82 -42,43 -79,75 -81,72 -3,-3 29,-40 71,-82 42,-43 79,-75 81,-72z"/>
  <path class="fil17" d="M564 5279c-5,0 -34,-25 -61,-63 -28,-40 -42,-78 -38,-79 0,0 0,0 0,0 4,0 23,33 50,71 27,39 53,68 50,71 0,0 0,0 -1,0z"/>
  <path class="fil0" d="M922 5178c2,3 -32,27 -76,52 -44,25 -81,43 -83,39 -2,-3 32,-27 76,-52 44,-25 81,-43 83,-39z"/>
  <path class="fil0" d="M1062 5063c-2,3 -35,-22 -64,-62 -30,-40 -43,-79 -40,-80 4,-2 23,33 51,72 28,39 55,68 53,71z"/>
  <path class="fil0" d="M1308 4263c2,3 -34,35 -82,71 -48,36 -88,62 -91,59 -2,-3 34,-35 82,-71 48,-36 88,-62 91,-59z"/>
  <path class="fil0" d="M1049 4246c-4,0 -3,-38 1,-85 5,-47 12,-84 16,-84 4,0 3,38 -1,85 -5,47 -12,84 -16,84z"/>
  <path class="fil17" d="M1287 3921c-6,0 -47,-26 -92,-64 -47,-40 -80,-79 -78,-81 0,0 0,0 1,0 5,0 41,32 86,70 47,40 85,71 83,75 0,0 0,0 -1,0z"/>
  <path class="fil0" d="M1108 3515c3,3 -27,43 -68,91 -41,48 -76,84 -79,82 -3,-3 27,-43 68,-91 41,-48 76,-84 79,-82z"/>
  <path class="fil17" d="M901 3472c-7,0 -36,-14 -72,-26 0,-5 0,-10 -1,-15 2,1 3,1 5,2 42,14 71,36 69,40 0,0 -1,1 -1,1z"/>
  <path class="fil17" d="M829 3446c0,0 0,0 0,0 -40,-14 -75,-20 -74,-24 0,-1 4,-2 12,-2 13,0 36,3 62,11 0,5 0,10 1,15z"/>
  <path class="fil0" d="M1425 3658c-4,-1 3,-35 15,-75 12,-41 25,-73 29,-71 4,1 -3,35 -15,76 -12,41 -25,73 -29,71z"/>
  <path class="fil0" d="M1550 3978c-4,0 -5,-33 -3,-74 2,-41 7,-73 11,-73 4,0 5,33 3,74 -2,41 -7,73 -11,73z"/>
  <path class="fil0" d="M1755 4218c-3,3 -33,-17 -68,-45 -35,-28 -61,-53 -59,-57 3,-3 33,17 68,45 35,28 61,53 59,57z"/>
  <path class="fil0" d="M1973 3883c3,3 -24,31 -61,63 -36,32 -68,55 -70,52 -3,-3 24,-31 61,-63 36,-32 68,-55 70,-52z"/>
  <path class="fil17" d="M1872 3725c-6,0 -38,-18 -72,-47 -37,-31 -62,-61 -59,-64 0,0 0,0 1,0 5,0 33,24 68,53 36,30 67,54 64,57 0,0 -1,0 -1,0z"/>
  <path class="fil0" d="M2125 3443c3,2 -14,31 -43,59 -30,28 -59,43 -61,40 -2,-3 23,-23 51,-50 29,-27 50,-51 53,-48z"/>
  <path class="fil17" d="M1943 3418c-15,0 -50,-4 -89,-14 -19,-5 -37,-10 -51,-15l-15 -16c17,4 42,11 70,18 52,13 95,23 94,27 0,1 -3,2 -9,2z"/>
  <path class="fil17" d="M1803 3388c-26,-9 -42,-18 -41,-20 0,-1 1,-1 3,-1 4,0 12,2 23,4l15 16z"/>
  <path class="fil17" d="M2274 3866c0,0 0,0 0,0 -4,-1 5,-55 25,-120 19,-64 42,-113 46,-113 0,0 0,0 0,0 4,1 -13,53 -33,117 -19,63 -34,116 -38,116z"/>
  <path class="fil0" d="M2346 4172c-3,3 -37,-29 -77,-71 -39,-42 -69,-78 -66,-81 3,-3 37,29 77,71 39,42 69,78 66,81z"/>
  <path class="fil17" d="M2456 4345c0,0 0,0 0,0 -4,0 -6,-46 -6,-102 1,-56 5,-101 9,-101l0 0c4,0 6,46 6,102 -1,56 -5,101 -9,101z"/>
  <path class="fil0" d="M2344 4631c-3,2 -33,-34 -60,-85 -28,-51 -42,-96 -38,-97 4,-2 24,40 51,90 27,50 51,90 48,92z"/>
  <path class="fil0" d="M2631 4683c3,3 -16,26 -43,52 -27,26 -50,45 -53,42 -3,-3 16,-26 43,-52 27,-26 50,-45 53,-42z"/>
  <path class="fil17" d="M1933 4358c0,0 0,0 0,0 -4,-1 9,-47 42,-94 31,-45 67,-73 72,-73 0,0 0,0 1,0 3,3 -30,35 -61,81 -31,45 -49,86 -54,86z"/>
  <path class="fil0" d="M1123 4739c-4,-1 3,-42 15,-92 12,-50 25,-90 29,-89 4,1 -3,42 -15,92 -12,50 -25,90 -29,89z"/>
  <path class="fil0" d="M1464 4773c-2,3 -37,-15 -77,-42 -40,-26 -72,-50 -69,-54 2,-3 37,15 77,42 40,26 72,50 69,54z"/>
  <path class="fil0" d="M1447 4527c-3,2 -20,-16 -36,-41 -17,-25 -28,-47 -24,-49 3,-2 20,16 36,41 17,25 28,47 24,49z"/>
  <path class="fil0" d="M1597 4583c2,3 -12,17 -33,32 -20,14 -39,23 -41,20 -2,-3 12,-17 33,-32 20,-14 39,-23 41,-20z"/>
  <path class="fil17" d="M1205 5581c0,0 0,0 0,0 -4,-1 2,-33 8,-72 1,-4 1,-9 2,-13 5,-4 10,-9 15,-13 0,9 -1,18 -3,28 -6,39 -18,70 -22,70z"/>
  <path class="fil18" d="M1214 5497c5,-33 8,-58 11,-58 0,0 0,0 0,0 3,0 6,19 4,45 -5,4 -10,9 -15,13z"/>
  <path class="fil17" d="M1550 5469c-4,0 -30,-39 -59,-89 -4,-7 -8,-14 -12,-21 5,-1 10,-1 15,-2 3,5 6,10 9,16 29,51 50,94 46,96 0,0 0,0 0,0z"/>
  <path class="fil18" d="M1480 5359c-23,-42 -38,-74 -35,-75 0,0 0,0 0,0 4,0 25,31 50,73 -5,1 -10,1 -15,2z"/>
  <path class="fil17" d="M1751 5532c0,0 0,0 0,0 -3,-2 32,-53 78,-114 45,-59 84,-105 89,-105 0,0 0,0 0,0 3,2 -32,53 -78,114 -45,59 -84,105 -89,105z"/>
  <path class="fil17" d="M1824 5640c-7,0 -10,-1 -11,-2 -1,-4 45,-14 103,-22 41,-6 77,-9 94,-9 7,0 10,1 10,2 1,4 -45,14 -103,22 -41,6 -77,9 -94,9z"/>
  <path class="fil0" d="M2037 5460c-4,-1 0,-31 1,-67 2,-36 1,-66 5,-67 4,-1 11,30 10,67 -2,38 -12,67 -16,66z"/>
  <path class="fil0" d="M1541 5633c-1,4 -39,-9 -78,-37 -39,-28 -63,-60 -60,-62 3,-3 31,23 69,50 38,27 71,45 70,49z"/>
  <path class="fil0" d="M952 5611c-4,-1 1,-33 10,-71 10,-38 21,-68 24,-67 4,1 -1,33 -10,71 -10,38 -21,68 -24,67z"/>
  <path class="fil13" d="M888 2098c1,-1 17,12 46,28 14,8 33,16 53,23 21,7 44,12 69,15 25,3 49,3 71,1 22,-2 41,-6 57,-11 32,-9 50,-19 51,-17 0,0 -4,3 -13,7 -4,2 -9,5 -16,7 -6,2 -13,6 -21,8 -16,5 -36,10 -58,12 -22,2 -47,3 -73,0 -26,-3 -50,-9 -71,-16 -21,-8 -39,-16 -54,-25 -7,-4 -14,-9 -19,-12 -6,-4 -10,-7 -14,-10 -7,-6 -11,-10 -11,-10z"/>
  <path class="fil13" d="M1247 2258c0,0 -5,2 -15,5 -10,3 -24,6 -42,9 -36,6 -87,12 -142,1 -55,-11 -100,-42 -123,-70 -12,-14 -19,-27 -23,-37 -4,-9 -5,-15 -5,-15 1,-1 8,22 32,48 24,27 67,55 121,66 54,11 104,6 140,1 18,-2 32,-5 42,-7 10,-2 16,-2 16,-2z"/>
  <path class="fil13" d="M753 3108c0,0 -1,-1 -2,-2 -1,-1 -3,-3 -5,-6 -4,-6 -8,-15 -11,-28 -5,-25 0,-67 31,-103 15,-18 35,-34 58,-49 23,-15 48,-29 73,-46 25,-17 50,-38 67,-65 8,-14 14,-29 17,-46 2,-17 1,-34 -3,-51 -8,-34 -23,-65 -35,-96 -13,-31 -23,-62 -23,-94 -3,-62 21,-116 48,-154 27,-38 59,-60 82,-72 6,-3 11,-5 16,-7 5,-2 8,-3 12,-4 6,-2 10,-3 10,-3 0,0 -3,2 -9,4 -3,1 -7,3 -12,5 -4,2 -10,5 -15,8 -22,12 -53,35 -79,73 -26,37 -48,90 -45,151 1,30 11,61 23,91 12,31 28,62 36,97 4,17 5,36 3,53 -2,18 -9,34 -18,49 -18,29 -44,50 -69,67 -26,17 -51,31 -74,45 -23,14 -43,30 -57,47 -30,35 -36,75 -32,99 4,25 16,36 15,36z"/>
  <path class="fil13" d="M1122 3113c0,0 -3,-1 -8,-5 -5,-4 -12,-9 -18,-20 -6,-10 -11,-24 -12,-40 -2,-16 0,-35 6,-55 11,-41 45,-78 71,-124 13,-23 22,-50 21,-79 0,-29 -9,-58 -22,-86 -26,-56 -67,-100 -95,-147 -14,-23 -26,-47 -33,-70 -7,-23 -9,-46 -7,-67 4,-42 23,-72 40,-87 9,-7 17,-12 22,-14 6,-2 9,-3 9,-3 1,1 -12,4 -29,19 -16,15 -34,45 -37,85 -2,20 0,42 7,65 7,23 19,45 33,68 14,23 31,45 48,69 17,24 34,49 48,78 13,28 22,59 23,89 1,30 -9,59 -22,82 -27,47 -61,84 -72,123 -6,19 -8,38 -7,53 1,16 5,29 11,39 11,20 24,24 24,25z"/>
  <path class="fil13" d="M1671 2070c0,0 -2,-1 -5,-2 -3,-2 -8,-5 -14,-9 -11,-8 -26,-23 -40,-45 -14,-21 -26,-49 -38,-80 -6,-15 -13,-31 -22,-47 -9,-16 -18,-31 -31,-46 -48,-59 -113,-91 -161,-103 -48,-13 -80,-10 -80,-11 0,0 8,-1 22,-1 14,1 35,2 59,8 25,6 53,16 82,33 29,17 58,40 83,71 13,15 22,31 31,47 9,16 15,32 22,48 12,31 24,58 37,80 13,21 27,36 37,45 11,9 18,13 17,13z"/>
  <path class="fil13" d="M1864 2069c0,0 -3,0 -7,-1 -5,-1 -12,-2 -21,-5 -18,-6 -42,-19 -66,-43 -24,-23 -48,-56 -69,-95 -22,-38 -43,-82 -76,-120 -32,-39 -76,-62 -118,-74 -42,-12 -82,-14 -115,-15 -33,-1 -60,1 -79,1 -9,0 -16,1 -21,1 -5,0 -7,0 -7,0 0,0 3,-1 7,-1 5,-1 12,-1 21,-2 19,-2 45,-4 79,-4 33,0 73,2 116,14 43,12 88,35 122,75 34,39 55,84 76,122 21,39 43,71 66,95 23,24 47,37 64,44 17,7 28,8 27,9z"/>
  <path class="fil13" d="M2192 2971c-1,0 4,-10 8,-28 5,-18 10,-45 8,-78 -1,-33 -9,-73 -30,-112 -10,-20 -24,-38 -40,-56 -16,-18 -34,-35 -53,-53 -19,-18 -37,-36 -51,-55 -15,-19 -27,-40 -37,-60 -10,-20 -17,-40 -22,-60 -5,-19 -9,-38 -10,-54 -4,-34 -2,-61 1,-80 1,-9 3,-17 4,-21 1,-5 2,-7 2,-7 1,0 -1,10 -3,29 -2,19 -3,46 1,79 2,17 6,35 11,53 5,19 13,39 23,58 10,20 22,40 37,59 15,19 32,37 51,54 19,18 37,35 53,53 16,18 30,38 40,58 21,40 28,81 29,115 1,34 -5,61 -11,79 -3,9 -5,16 -8,20 -2,5 -3,7 -3,7z"/>
  <path class="fil13" d="M671 2058c0,0 0,-5 2,-14 2,-9 6,-21 14,-35 15,-28 48,-62 96,-74 49,-11 94,5 119,23 13,9 22,18 28,25 6,7 8,11 8,11 -1,1 -12,-16 -38,-32 -26,-16 -69,-31 -115,-20 -46,11 -78,44 -94,70 -16,27 -18,46 -20,46z"/>
  <path class="fil13" d="M805 2117c-1,0 0,-12 4,-32 4,-19 11,-47 33,-70 23,-23 55,-26 74,-19 10,4 16,9 20,13 3,4 5,7 4,8 -1,1 -7,-11 -25,-16 -17,-5 -47,-2 -67,19 -20,21 -28,47 -33,66 -5,19 -8,31 -9,30z"/>
  <path class="fil5" d="M982 1913c2,1 -21,32 -36,76 -16,44 -17,82 -19,82 -2,0 -4,-39 12,-84 16,-45 42,-75 43,-73z"/>
  <path class="fil13" d="M3204 2252c0,24 19,43 43,43 24,0 43,-19 43,-43 0,-24 -19,-43 -43,-43 -24,0 -43,19 -43,43z"/>
  <path class="fil13" d="M3031 2252c0,24 19,43 43,43 24,0 43,-19 43,-43 0,-24 -19,-43 -43,-43 -24,0 -43,19 -43,43z"/>
  <path class="fil13" d="M2858 2230c-12,21 -5,47 16,59 21,12 47,5 59,-16 12,-21 5,-47 -16,-59 -21,-12 -47,-5 -59,16z"/>
  <path class="fil13" d="M3071 1747c0,0 -3,0 -9,0 -6,0 -15,0 -26,1 -6,0 -12,0 -19,1 -7,1 -15,2 -23,3 -8,1 -17,2 -26,4 -9,2 -19,5 -30,7 -42,11 -92,29 -143,62 -51,33 -105,80 -148,144 -43,64 -75,145 -84,236 -1,23 -4,46 -1,69 1,12 1,24 2,35 2,12 4,24 5,36 10,47 24,96 48,141 24,45 55,88 92,127 38,38 83,70 133,95 50,25 104,43 162,50 14,3 29,3 43,4 14,1 29,1 44,1 29,-1 58,-5 87,-11 63,-13 122,-39 174,-73l-5 1c60,24 119,48 177,71l10 4 -3 -11c-18,-65 -35,-128 -52,-189l-1 5c50,-66 81,-141 94,-216 7,-37 9,-75 7,-111 -1,-18 -2,-36 -5,-53 -1,-9 -3,-17 -4,-26 -2,-9 -4,-17 -6,-25 -34,-133 -116,-232 -197,-288 -41,-29 -81,-49 -118,-62 -9,-3 -18,-6 -26,-9 -9,-2 -17,-4 -25,-6 -8,-2 -16,-4 -23,-6 -7,-1 -15,-2 -21,-3 -13,-2 -25,-4 -35,-5 -10,0 -19,-1 -26,-1 -7,0 -12,0 -16,0 -4,0 -5,0 -5,0 0,0 2,0 5,1 4,0 9,1 16,1 7,0 16,1 26,2 10,1 22,3 35,5 52,10 130,30 210,89 80,56 160,154 192,285 2,8 4,16 6,25 1,8 3,17 4,25 3,17 4,35 5,52 2,35 -1,72 -7,109 -13,73 -44,147 -93,212l-2 2 1 3c17,61 34,124 52,189l7 -7c-58,-23 -117,-47 -177,-71l-3 -1 -3 2c-51,33 -109,58 -170,71 -28,6 -57,10 -85,11 -14,1 -28,0 -43,-1 -14,-1 -28,-1 -42,-4 -56,-7 -110,-24 -158,-48 -49,-24 -92,-56 -130,-93 -37,-37 -67,-80 -90,-124 -24,-44 -38,-92 -48,-138 -2,-12 -4,-23 -5,-35 -2,-12 -2,-23 -2,-35 -2,-23 0,-46 1,-68 8,-89 40,-168 81,-232 42,-63 94,-110 145,-143 50,-34 100,-52 141,-64 10,-3 20,-5 29,-8 9,-2 18,-3 26,-4 8,-1 16,-3 22,-4 7,-1 13,-1 19,-1 11,-1 19,-1 26,-2 6,-1 9,-1 9,-1z"/>
 </g>
</svg>
