<?xml version="1.0" encoding="UTF-8"?>
<!DOCTYPE svg PUBLIC "-//W3C//DTD SVG 1.1//EN" "http://www.w3.org/Graphics/SVG/1.1/DTD/svg11.dtd">
<!-- Creator: CorelDRAW X6 -->
<svg xmlns="http://www.w3.org/2000/svg" xml:space="preserve" width="500px" height="500px" version="1.1" style="shape-rendering:geometricPrecision; text-rendering:geometricPrecision; image-rendering:optimizeQuality; fill-rule:evenodd; clip-rule:evenodd"
viewBox="0 0 38333 25556"
 xmlns:xlink="http://www.w3.org/1999/xlink">
 <defs>
  <style type="text/css">
   <![CDATA[
    .fil23 {fill:#1C468A;fill-rule:nonzero}
    .fil18 {fill:#233862;fill-rule:nonzero}
    .fil19 {fill:#2B478B;fill-rule:nonzero}
    .fil22 {fill:#2C3A64;fill-rule:nonzero}
    .fil4 {fill:#599DAD;fill-rule:nonzero}
    .fil5 {fill:#6BB7BF;fill-rule:nonzero}
    .fil6 {fill:#86D1CD;fill-rule:nonzero}
    .fil10 {fill:#9ABCEF;fill-rule:nonzero}
    .fil2 {fill:#A8D29F;fill-rule:nonzero}
    .fil3 {fill:#AFCDFB;fill-rule:nonzero}
    .fil13 {fill:#BBD5FC;fill-rule:nonzero}
    .fil15 {fill:#C65447;fill-rule:nonzero}
    .fil14 {fill:#D2E4FD;fill-rule:nonzero}
    .fil12 {fill:#D8E8FD;fill-rule:nonzero}
    .fil17 {fill:#E58638;fill-rule:nonzero}
    .fil11 {fill:#E9F3FE;fill-rule:nonzero}
    .fil21 {fill:#ED985F;fill-rule:nonzero}
    .fil20 {fill:#EE9849;fill-rule:nonzero}
    .fil7 {fill:#EFCBAB;fill-rule:nonzero}
    .fil9 {fill:#EFCDAF;fill-rule:nonzero}
    .fil1 {fill:#FCECDB;fill-rule:nonzero}
    .fil16 {fill:#FFB27D;fill-rule:nonzero}
    .fil8 {fill:#FFEBDC;fill-rule:nonzero}
    .fil0 {fill:white;fill-rule:nonzero}
   ]]>
  </style>
 </defs>
 <g id="Layer_x0020_1">
  <metadata id="CorelCorpID_0Corel-Layer"/>
  <polygon class="fil0" points="0,25556 38333,25556 38333,0 0,0 "/>
  <path class="fil1" d="M31348 23043c0,0 2357,559 3518,-1974 1505,-3286 -608,-6408 -4253,-6633 -5258,-324 -2344,-8718 -10640,-6441 -2333,640 -7407,-2666 -10394,2936 -508,952 -2026,906 -4049,2531 -3568,2866 -2284,9611 723,9642 3007,31 25095,-61 25095,-61z"/>
  <path class="fil2" d="M6779 23091c0,0 110,-718 1508,-911 1398,-193 2699,-1742 5005,-1517 2306,225 4220,1635 6845,1203 2625,-432 4269,119 4858,553 589,434 3026,-102 3206,694l-21420 -22z"/>
  <path class="fil3" d="M12527 5980c0,0 -1578,-77 -741,4733 0,0 563,1633 -148,2685l10467 0 0 -7418 -9578 0z"/>
  <path class="fil4" d="M13602 18486c0,0 -731,-853 -45,-1395 0,0 501,-304 910,-279 0,0 -579,971 -392,1068 187,97 567,-1129 567,-1129 0,0 1140,-111 1507,66 0,0 -975,798 -770,845 205,48 1258,-736 1258,-736 0,0 1061,181 1005,828 -57,648 -422,848 -583,830 -161,-17 -1101,-376 -1122,-244 -21,132 546,562 942,582 0,0 -748,825 -1246,587 -497,-238 -540,-616 -850,-757 -310,-142 -575,-141 -447,3 128,144 689,285 866,598 177,314 336,525 -178,448 -515,-77 -1351,-454 -1388,-885 -37,-431 -37,-431 -37,-431z"/>
  <path class="fil4" d="M17122 17773c0,0 -2883,-111 -3520,713 0,0 -141,422 -574,806l-68 184c0,0 500,-527 678,-559 0,0 -280,-1022 3483,-1145z"/>
  <path class="fil4" d="M13028 19292c0,0 -619,458 -662,1275l112 10c0,0 198,-846 555,-1176 357,-331 -5,-109 -5,-109z"/>
  <path class="fil5" d="M11046 17413c0,0 1163,-651 620,-1535 0,0 -434,-543 -900,-682 0,0 248,1318 0,1349 -248,31 -171,-1489 -171,-1489 0,0 -1225,-589 -1706,-543 0,0 760,1287 512,1256 -248,-31 -1101,-1334 -1101,-1334 0,0 -1256,-233 -1458,512 -202,744 124,1117 310,1163 186,47 1380,31 1349,186 -31,155 -837,403 -1287,264 0,0 496,1225 1148,1163 651,-62 853,-465 1256,-496 403,-31 698,78 496,186 -202,109 -884,36 -1210,313 -326,277 -589,447 15,572 605,124 1691,47 1908,-419 217,-465 217,-465 217,-465z"/>
  <path class="fil5" d="M7416 15180c0,0 3257,1055 3629,2233 0,0 -16,527 310,1132l0 233c0,0 -341,-791 -527,-900 0,0 729,-1024 -3412,-2699z"/>
  <path class="fil5" d="M11356 18545c0,0 502,763 216,1691l-129 -35c0,0 125,-1023 -137,-1537 -263,-514 51,-119 51,-119z"/>
  <path class="fil6" d="M12896 16515c0,0 -1533,-859 -818,-2024 0,0 572,-716 1186,-900 0,0 -327,1738 0,1779 327,41 225,-1963 225,-1963 0,0 1615,-777 2249,-716 0,0 -1002,1697 -675,1656 327,-41 1452,-1758 1452,-1758 0,0 1656,-307 1922,675 266,981 -164,1472 -409,1533 -245,61 -1820,41 -1779,245 41,204 1104,532 1697,347 0,0 -654,1615 -1513,1533 -859,-82 -1124,-613 -1656,-654 -532,-41 -920,102 -654,245 266,143 1165,47 1595,412 429,365 777,590 -20,753 -797,164 -2228,61 -2515,-552 -286,-613 -286,-613 -286,-613z"/>
  <path class="fil5" d="M17680 13571c0,0 -4293,1390 -4784,2944 0,0 20,695 -409,1492l0 307c0,0 450,-1043 695,-1186 0,0 -961,-1349 4498,-3557z"/>
  <path class="fil5" d="M12487 18007c0,0 -662,1005 -285,2229l170 -46c0,0 -165,-1348 181,-2026 346,-678 -67,-158 -67,-158z"/>
  <path class="fil7" d="M12844 22891c1659,0 3003,-1345 3003,-3003l-6007 0c0,1659 1345,3003 3003,3003z"/>
  <path class="fil8" d="M13584 22868c-122,15 -247,23 -373,23 -1659,0 -3003,-1345 -3003,-3003l746 0c0,1532 1148,2797 2630,2981z"/>
  <path class="fil7" d="M15889 23043l-6090 0 0 0c0,-205 166,-371 371,-371l5349 0c205,0 371,166 371,371l0 0z"/>
  <polygon class="fil9" points="9742,19979 15916,19979 15916,19887 9742,19887 "/>
  <path class="fil4" d="M23713 8467c0,0 -526,-993 262,-1371 0,0 556,-186 949,-72 0,0 -778,820 -617,956 162,135 801,-976 801,-976 0,0 1137,142 1456,395 0,0 -1126,564 -937,656 190,91 1389,-441 1389,-441 0,0 996,409 799,1029 -197,619 -598,734 -751,682 -153,-52 -992,-609 -1041,-485 -49,124 409,668 791,775 0,0 -911,641 -1344,299 -433,-342 -392,-719 -663,-925 -271,-206 -530,-264 -437,-95 93,169 610,429 714,774 104,345 213,586 -272,398 -485,-189 -1218,-739 -1160,-1168 59,-429 59,-429 59,-429z"/>
  <path class="fil4" d="M27303 8544c0,0 -2788,-741 -3591,-77 0,0 -230,381 -737,660l-106 165c0,0 603,-404 784,-396 0,0 -49,-1058 3649,-352z"/>
  <path class="fil4" d="M22976 9127c0,0 -704,311 -926,1099l107 34c0,0 378,-782 799,-1026 421,-244 19,-108 19,-108z"/>
  <path class="fil6" d="M20248 6676c0,0 -1558,-813 -878,-1999 0,0 551,-732 1158,-934 0,0 -275,1747 53,1778 328,31 166,-1968 166,-1968 0,0 1591,-825 2227,-782 0,0 -951,1726 -625,1675 326,-51 1399,-1801 1399,-1801 0,0 1646,-356 1941,617 295,973 -120,1476 -363,1545 -243,69 -1818,95 -1771,298 47,203 1119,498 1706,297 0,0 -606,1634 -1467,1578 -861,-56 -1142,-580 -1675,-605 -532,-25 -917,130 -647,265 270,135 1166,12 1606,364 440,352 794,566 2,754 -792,187 -2226,128 -2530,-477 -304,-605 -304,-605 -304,-605z"/>
  <path class="fil5" d="M24943 3591c0,0 -4250,1517 -4694,3085 0,0 41,694 -364,1504l9 307c0,0 418,-1056 659,-1206 0,0 -1001,-1320 4390,-3690z"/>
  <path class="fil5" d="M19884 8180c0,0 -632,1025 -218,2237l169 -51c0,0 -205,-1343 121,-2030 326,-688 -71,-156 -71,-156z"/>
  <polygon class="fil10" points="13191,23078 24118,23078 24118,8827 13191,8827 "/>
  <polygon class="fil11" points="13548,23078 24292,23078 24292,8827 13548,8827 "/>
  <path class="fil2" d="M31868 23043l-2165 0c-116,-98 80,-322 285,-337 89,-7 202,12 330,39 30,-396 200,-2175 841,-2103 721,80 0,783 -204,1200 -151,308 -310,751 -383,960 59,13 119,25 181,37 95,-293 451,-1280 903,-1223 531,67 317,463 -59,698 -276,173 -615,418 -776,537 137,22 279,37 423,34 371,-9 552,100 622,159z"/>
  <path class="fil11" d="M24292 8827c0,0 0,0 0,0l-10744 0c59,-812 -30,-1402 -174,-1827 -276,-816 -750,-1020 -750,-1020l10133 0c865,0 1535,521 1718,1213 7,26 13,52 19,78 173,791 -194,1542 -201,1557z"/>
  <path class="fil12" d="M24292 8827c0,0 0,0 0,0l-10744 0c59,-812 -30,-1402 -174,-1827 1098,201 3817,629 6728,557 1883,-47 3371,-173 4391,-287 173,791 -194,1542 -201,1557z"/>
  <path class="fil13" d="M21454 12114l-5698 0c-58,0 -106,-48 -106,-106l0 -55c0,-59 48,-106 106,-106l5698 0c58,0 106,48 106,106l0 55c0,59 -48,106 -106,106z"/>
  <path class="fil13" d="M19249 12563l-3515 0c-46,0 -84,-38 -84,-84l0 -99c0,-46 38,-84 84,-84l3515 0c46,0 84,38 84,84l0 99c0,46 -38,84 -84,84z"/>
  <path class="fil13" d="M15101 12520l0 -546 -72 0c-44,0 -66,-18 -66,-55 0,-26 17,-45 51,-56 17,-6 45,-10 83,-13 38,-3 69,-4 92,-4 22,0 37,5 43,14 6,9 9,32 9,69l0 591 74 0c48,0 72,21 72,62 0,44 -24,66 -72,66l-299 0c-21,0 -39,-6 -53,-17 -14,-11 -21,-27 -21,-48 0,-42 24,-63 73,-63l85 0z"/>
  <path class="fil14" d="M21454 14928l-5698 0c-58,0 -106,-48 -106,-106l0 -54c0,-58 48,-106 106,-106l5698 0c58,0 106,48 106,106l0 54c0,59 -48,106 -106,106z"/>
  <path class="fil14" d="M19249 15378l-3515 0c-46,0 -84,-38 -84,-84l0 -99c0,-46 38,-84 84,-84l3515 0c46,0 84,38 84,84l0 99c0,46 -38,84 -84,84z"/>
  <path class="fil14" d="M15400 15323c0,36 -25,55 -76,55l-316 0c-46,0 -69,-18 -69,-55 0,-12 6,-25 18,-41 18,-21 44,-52 79,-93 53,-66 97,-123 132,-172 12,-16 30,-40 52,-73 19,-33 28,-60 28,-83 0,-25 -8,-46 -24,-62 -16,-16 -37,-25 -62,-25 -24,0 -46,8 -64,23 -12,10 -22,30 -29,58 -9,37 -15,58 -17,64 -10,21 -25,31 -47,31 -19,0 -34,-7 -45,-21 -10,-12 -15,-28 -15,-48 0,-23 3,-45 11,-68 16,-50 43,-87 82,-114 37,-25 83,-38 136,-38 59,0 108,18 147,53 41,37 61,85 61,143 0,43 -14,88 -43,133 -16,25 -49,70 -99,133 -26,33 -66,81 -122,143l208 0c50,0 75,19 75,56z"/>
  <path class="fil14" d="M21454 17276l-5698 0c-58,0 -106,-48 -106,-106l0 -55c0,-58 48,-106 106,-106l5698 0c58,0 106,48 106,106l0 55c0,58 -48,106 -106,106z"/>
  <path class="fil14" d="M19249 17726l-3515 0c-46,0 -84,-38 -84,-84l0 -99c0,-46 38,-84 84,-84l3515 0c46,0 84,38 84,84l0 99c0,46 -38,84 -84,84z"/>
  <path class="fil14" d="M15400 17502c0,68 -24,123 -72,165 -45,39 -103,59 -173,59 -54,0 -100,-13 -138,-38 -61,-41 -91,-90 -91,-147 0,-16 5,-31 16,-42 11,-12 24,-18 40,-18 17,0 33,12 48,34 24,38 38,59 43,63 22,23 50,34 84,34 46,0 79,-17 99,-51 9,-17 14,-39 14,-65 0,-64 -38,-100 -113,-107 -43,-4 -64,-22 -64,-54 0,-24 12,-40 37,-50 46,-17 70,-26 71,-27 25,-16 37,-45 37,-86 0,-24 -7,-43 -22,-58 -14,-14 -34,-21 -58,-21 -30,0 -54,7 -71,22 -14,13 -27,34 -36,64 -8,23 -23,34 -45,34 -16,0 -29,-7 -39,-21 -10,-14 -15,-29 -15,-45 0,-20 6,-41 17,-61 18,-34 47,-61 85,-80 35,-18 73,-27 114,-27 56,0 102,17 140,51 37,34 56,78 56,134 0,67 -28,119 -83,158 80,32 120,92 120,180z"/>
  <path class="fil13" d="M20790 9774l-3549 0c-61,0 -110,-50 -110,-110l0 -90c0,-61 50,-110 110,-110l3549 0c61,0 110,50 110,110l0 90c0,61 -50,110 -110,110z"/>
  <path class="fil13" d="M21716 10253l-5400 0c-75,0 -136,-61 -136,-135l0 -39c0,-75 61,-136 136,-136l5400 0c74,0 135,61 135,136l0 39c0,75 -61,135 -135,135z"/>
  <path class="fil15" d="M18599 13555c-1170,0 -2281,-147 -3109,-357 -837,-212 -1287,-559 -1287,-866 0,-279 367,-535 1062,-741l0 0c-666,198 -1022,488 -1022,741 0,281 462,559 1266,763 825,209 1922,324 3090,324 1167,0 2265,-115 3090,-324 805,-204 1266,-482 1266,-763 0,-298 -486,-668 -1268,-966 -889,-339 -1986,-464 -3088,-464 -2068,0 -2919,241 -3658,544l0 0c742,-304 1583,-648 3658,-648 1106,0 2207,187 3101,528 799,304 1295,690 1295,1007 0,307 -461,594 -1297,806 -828,210 -1928,417 -3099,417z"/>
  <path class="fil16" d="M25707 16298c0,0 -39,375 -81,446 -42,71 -222,297 -299,342 -77,44 47,-298 31,-365 -16,-67 -63,122 -97,126 -34,4 -25,-165 -26,-227 -1,-62 164,-214 223,-346 58,-131 249,24 249,24z"/>
  <path class="fil16" d="M21103 12843l-86 -162c0,0 43,-290 -320,-473 0,0 -133,-54 -208,54 -69,100 131,82 121,252 -11,170 70,270 183,326l93 108 217 -105z"/>
  <path class="fil17" d="M24532 12454c0,0 -312,1529 -2026,2029 -535,156 -1751,-1606 -1751,-1606 0,0 43,-162 310,-125 0,0 1184,784 1333,869 132,76 1002,-971 1398,-1140 397,-169 735,-26 735,-26z"/>
  <polygon class="fil15" points="21562,12398 21513,12715 19921,12470 19970,12153 "/>
  <polygon class="fil16" points="19575,12255 19921,12470 19970,12153 "/>
  <path class="fil16" d="M21731 12531l-15 100c-9,62 -67,104 -129,94l-74 -11 49 -317 80 12c58,9 98,63 89,121z"/>
  <path class="fil18" d="M26579 22067c0,0 212,194 171,332 -42,138 -233,230 -259,398 -26,169 -130,261 -223,261 -94,0 -445,0 -445,0 0,0 -69,-119 97,-154 166,-36 229,-234 218,-418 -11,-184 15,-429 15,-429l353 -82 73 92z"/>
  <path class="fil18" d="M23969 22568c0,0 38,442 -55,488l-1195 -2c0,0 0,-138 192,-169 192,-31 529,-143 586,-393 57,-250 472,77 472,77z"/>
  <path class="fil19" d="M22960 16329c0,0 63,774 137,1705 101,1264 222,2817 234,3112 21,511 104,1328 104,1328 0,0 197,194 591,112 0,0 351,-1167 452,-2401 2,-20 3,-41 5,-61 93,-1257 239,-3902 239,-3902l-1761 107z"/>
  <path class="fil18" d="M22960 16329c0,0 63,774 137,1705l1381 2151c2,-20 3,-41 5,-61 93,-1257 239,-3902 239,-3902l-1761 107z"/>
  <path class="fil19" d="M23248 16421c0,0 1136,2804 1883,4122 747,1318 980,1686 980,1686 0,0 428,-168 467,-283 0,0 -286,-2544 -786,-3164 -283,-350 -615,-1402 -630,-1770 -16,-368 -101,-1096 -101,-1096l-1813 506z"/>
  <path class="fil16" d="M24743 12099c0,0 -769,371 -1212,233 0,0 109,-138 300,-240 -15,-89 -27,-166 -34,-232 -19,-151 -19,-237 -19,-237l297 -233 281 -223c-22,628 387,931 387,931z"/>
  <path class="fil20" d="M25148 16059c2,47 -99,101 -143,121 -329,144 -636,245 -983,278 -411,42 -897,-50 -1063,-47 -17,0 -32,-7 -46,-18 -12,-8 -21,-503 -12,-1126 0,-25 0,-50 2,-76l0 -8c3,-243 12,-498 24,-753 24,-560 68,-1101 143,-1400 90,-352 295,-586 481,-755l153 -134c153,30 315,22 477,-57 177,-86 368,-178 399,-154 232,170 389,550 472,1037 48,280 72,594 70,923 0,121 -3,245 -10,368 -41,664 0,1242 24,1576 7,97 12,173 14,227z"/>
  <path class="fil17" d="M25134 16028c-2692,-5 -496,-2921 -496,-2921l436 -142c34,299 52,635 50,986 0,129 -2,262 -7,393 -30,710 0,1327 17,1684z"/>
  <path class="fil21" d="M24361 11408c0,0 -194,354 -564,453 -19,-151 -19,-237 -19,-237l297 -233 286 17z"/>
  <path class="fil16" d="M23643 11614c0,0 733,120 802,-331 69,-451 210,-739 -255,-835 -465,-96 -583,63 -643,208 -60,145 -93,915 96,958z"/>
  <path class="fil22" d="M24712 10395c7,-8 22,-14 56,-16 0,0 -27,-17 -64,-18 -7,-47 -33,-132 -114,-152 0,0 44,23 50,74 -95,-97 -298,-168 -860,-124 -741,58 -497,533 -401,589 96,57 337,-98 516,-84 179,14 212,272 273,308 61,35 37,-27 119,-64 82,-37 90,99 66,187 -24,88 89,205 89,205 0,0 0,0 114,-123 114,-123 221,-642 169,-753 -5,-10 -9,-20 -14,-30z"/>
  <path class="fil20" d="M24578 11925c0,0 464,220 686,557 345,524 745,2433 753,2610 7,177 -292,1425 -292,1425 0,0 -304,-20 -382,-173 0,0 61,-1282 22,-1365 -38,-83 -1266,-1720 -1128,-2070 138,-350 340,-984 340,-984z"/>
  <path class="fil16" d="M21016 12672c0,0 25,-100 -44,-144 -69,-45 -133,-167 -162,-150 -60,34 33,141 16,273 -6,46 102,168 190,21z"/>
  <path class="fil2" d="M9742 22110c0,0 -1090,-2791 -1854,-2346 -764,444 1854,2346 1854,2346z"/>
  <path class="fil2" d="M9203 22110c0,0 -1440,-1244 -2097,-1013 -658,231 2097,1013 2097,1013z"/>
  <path class="fil2" d="M24447 22512c0,0 332,-1154 721,-1017 389,136 -721,1017 -721,1017z"/>
  <path class="fil2" d="M24750 22449c0,0 847,-556 1033,-384 186,172 -1033,384 -1033,384z"/>
  <path class="fil14" d="M21856 19979l-6607 0c-44,0 -80,-36 -80,-80l0 0c0,-44 36,-80 80,-80l6607 0c44,0 80,36 80,80l0 0c0,44 -36,80 -80,80z"/>
  <path class="fil14" d="M21856 20301l-6607 0c-44,0 -80,-36 -80,-80l0 0c0,-44 36,-80 80,-80l6607 0c44,0 80,36 80,80l0 0c0,44 -36,80 -80,80z"/>
  <path class="fil14" d="M21856 20658l-6607 0c-44,0 -80,-36 -80,-80l0 0c0,-44 36,-80 80,-80l6607 0c44,0 80,36 80,80l0 0c0,44 -36,80 -80,80z"/>
  <path class="fil14" d="M20989 21014l-5745 0c-41,0 -75,-34 -75,-75l0 -11c0,-41 34,-75 75,-75l5745 0c41,0 75,34 75,75l0 11c0,41 -34,75 -75,75z"/>
  <path class="fil23" d="M35819 23113l-32762 0c-18,0 -32,-14 -32,-32l0 -6c0,-18 14,-32 32,-32l32762 0c18,0 32,14 32,32l0 6c0,18 -14,32 -32,32z"/>
 </g>
</svg>
